STARTFONT 2.1
FONT -Monotype-Bookman Old Style-Regular-I-Normal--50-360-100-100-P-295-iso8859-4
SIZE 36 100 100
FONTBOUNDINGBOX 79 57 -13 -12

STARTPROPERTIES 24
FOUNDRY "Monotype"
FAMILY_NAME "Bookman Old Style"
WEIGHT_NAME "Regular"
SLANT "I"
SETWIDTH_NAME "Normal"
ADD_STYLE_NAME ""
PIXEL_SIZE 50
POINT_SIZE 360
RESOLUTION_X 100
RESOLUTION_Y 100
SPACING "P"
AVERAGE_WIDTH 295
CHARSET_REGISTRY "iso8859"
CHARSET_ENCODING "4"
FACE_NAME "Bookman Old Style Italic Latin4"
_DEC_DEVICE_FONTNAMES "PS=bookmanoldstyle-it-lat4"
COPYRIGHT "Copyright (c) 1993 Monotype Typography Ltd."
CAP_HEIGHT 40
X_HEIGHT 28
WEIGHT 10
QUAD_WIDTH 37
DEFAULT_CHAR 160
FONT_DESCENT 14
FONT_ASCENT 46
ENDPROPERTIES

CHARS 191

STARTCHAR space
ENCODING 32
SWIDTH 300 0
DWIDTH 15 0
BBX 0 0 0 0
BITMAP
ENDCHAR

STARTCHAR exclam
ENCODING 33
SWIDTH 320 0
DWIDTH 16 0
BBX 15 35 5 -1
BITMAP
0070
00F8
01F8
01F8
01F8
01F0
01F0
01F0
01E0
03E0
03E0
03E0
03C0
03C0
03C0
0380
0380
0780
0700
0700
0700
0700
0600
0600
0E00
0C00
0000
0000
0000
1C00
3E00
7E00
7E00
7C00
3800
ENDCHAR

STARTCHAR quotedbl
ENCODING 34
SWIDTH 360 0
DWIDTH 18 0
BBX 16 13 7 22
BITMAP
0404
0E0E
1E1E
1E1C
1C1C
1C1C
1818
3838
3838
3030
3030
2020
2020
ENDCHAR

STARTCHAR numbersign
ENCODING 35
SWIDTH 600 0
DWIDTH 30 0
BBX 27 33 5 0
BITMAP
00381C00
00381C00
00301C00
00301C00
00701C00
00701C00
00701800
00703800
00703800
00603800
1FFFFFC0
1FFFFFC0
1FFFFFC0
00E03000
00E07000
00C07000
00C07000
01C07000
01C07000
7FFFFF00
7FFFFF00
7FFFFF00
0180E000
0380E000
0380E000
0380E000
0380C000
0381C000
0381C000
0301C000
0701C000
0701C000
07018000
ENDCHAR

STARTCHAR dollar
ENCODING 36
SWIDTH 620 0
DWIDTH 31 0
BBX 32 46 3 -6
BITMAP
00000600
00000E00
00000C00
00000C00
00000C00
00001C00
0007FC0C
001FFF8C
007E1FDC
00F839FC
01E038FC
01E0307C
03C0303C
03C0701C
03C0701C
03C0601C
03E0600C
01F06000
01F8E000
00FEC000
007FC000
001FF000
0007FC00
0001FF00
0001FFC0
00018FC0
000183E0
380381F0
380301F0
380300F0
380300F0
3C0700F0
3C0700F0
3E0600E0
3F0601E0
3F8E03C0
3BCE0780
31FC3F00
307FFE00
201FF000
001C0000
00180000
00180000
00180000
00380000
00380000
ENDCHAR

STARTCHAR percent
ENCODING 37
SWIDTH 800 0
DWIDTH 40 0
BBX 38 35 6 0
BITMAP
00780000C0
01FE0001C0
0787000380
0E03800700
0E03800E00
1C03801C00
3803801800
3803803000
3803807000
700380E000
700701C000
7007038000
7007070000
700E060000
701E0C0000
301C1C0000
3878380000
1FE0701F00
0780E07FC0
0000C1E0E0
000183C070
0003038070
0007070070
000E0F0070
001C0E0070
00381E0070
00301C00F0
00601C00E0
00C01C00E0
01C01C01C0
03801C03C0
07000E0780
0E000E0F00
0C0007FC00
180001F000
ENDCHAR

STARTCHAR ampersand
ENCODING 38
SWIDTH 820 0
DWIDTH 41 0
BBX 41 36 3 -1
BITMAP
0000FE000000
0003FF800000
0007C7C00000
000F03C00000
001E01E00000
001E01E00000
003C01E00000
003C01E00000
003C01E00000
003C01C00000
001C03C00000
001E07800000
000F0F000000
0007FE000000
0007F81FFE00
001FF01FFE00
007C7801E000
01F03C01C000
03C01E018000
07800F038000
0F000F038000
1E000F870000
1E0007860000
3E0007CE0000
3C0007DC1C00
3C0003F83E00
3C0003F83E00
3C0003F03E00
3E0003E01E00
3E0001E01E00
1F0007E00E00
1F800FF01C00
0FE03EF81C00
07FFF87C7800
01FFE03FF000
003F000FC000
ENDCHAR

STARTCHAR quoteright
ENCODING 39
SWIDTH 280 0
DWIDTH 14 0
BBX 12 14 7 22
BITMAP
0380
07C0
0FC0
0FE0
07E0
03E0
00C0
01C0
0380
0780
0F00
1E00
7800
3000
ENDCHAR

STARTCHAR parenleft
ENCODING 40
SWIDTH 280 0
DWIDTH 14 0
BBX 18 47 4 -12
BITMAP
000200
000700
000E00
001C00
003C00
003800
007000
00F000
00E000
01E000
01C000
03C000
03C000
078000
078000
078000
0F0000
0F0000
0F0000
1F0000
1E0000
1E0000
1E0000
3E0000
3E0000
3C0000
3C0000
3C0000
3C0000
3C0000
780000
780000
780000
780000
780000
780000
780000
380000
380000
380000
380000
380000
1C0000
1C0000
0C0000
0E0000
040000
ENDCHAR

STARTCHAR parenright
ENCODING 41
SWIDTH 280 0
DWIDTH 14 0
BBX 18 47 -2 -12
BITMAP
000800
001C00
000C00
000E00
000600
000700
000700
000700
000700
000780
000780
000780
000780
000780
000780
000780
000780
000780
000F00
000F00
000F00
000F00
000F00
001F00
001E00
001E00
001E00
003E00
003E00
003C00
003C00
007C00
007800
007800
00F000
00F000
00E000
01E000
01E000
03C000
038000
078000
0F0000
0E0000
1C0000
380000
100000
ENDCHAR

STARTCHAR asterisk
ENCODING 42
SWIDTH 440 0
DWIDTH 22 0
BBX 21 18 7 16
BITMAP
007800
007800
007800
107800
3C7000
7E7000
7E61E0
3F67E0
01FFE0
00F7E0
01E000
0FB000
1F3800
1E3C00
1E3E00
1C1E00
001E00
000C00
ENDCHAR

STARTCHAR plus
ENCODING 43
SWIDTH 600 0
DWIDTH 30 0
BBX 27 23 5 6
BITMAP
000E0000
000E0000
000E0000
000E0000
000E0000
000E0000
000E0000
000E0000
000E0000
000E0000
3FFFFF80
3FFFFF80
3FFFFF80
000E0000
000E0000
000E0000
000E0000
000E0000
000E0000
000E0000
000E0000
000E0000
000E0000
ENDCHAR

STARTCHAR comma
ENCODING 44
SWIDTH 300 0
DWIDTH 15 0
BBX 12 14 1 -8
BITMAP
0380
07C0
0FC0
0FE0
07E0
03E0
00C0
01C0
0380
0780
0F00
1E00
7800
3000
ENDCHAR

STARTCHAR minus
ENCODING 45
SWIDTH 600 0
DWIDTH 30 0
BBX 27 3 5 16
BITMAP
3FFFFF80
3FFFFF80
3FFFFF80
ENDCHAR

STARTCHAR period
ENCODING 46
SWIDTH 300 0
DWIDTH 15 0
BBX 8 6 4 -1
BITMAP
1C
3E
7E
7E
7C
38
ENDCHAR

STARTCHAR slash
ENCODING 47
SWIDTH 600 0
DWIDTH 30 0
BBX 30 42 0 -6
BITMAP
00000070
000000F0
000000E0
000001C0
000001C0
00000380
00000780
00000700
00000F00
00000E00
00001C00
00001C00
00003800
00007800
00007000
0000F000
0000E000
0001C000
0001C000
00038000
00078000
00070000
000F0000
000E0000
001C0000
001C0000
00380000
00780000
00700000
00F00000
00E00000
01C00000
01C00000
03800000
07800000
07000000
0F000000
0E000000
1C000000
1C000000
38000000
78000000
ENDCHAR

STARTCHAR zero
ENCODING 48
SWIDTH 620 0
DWIDTH 31 0
BBX 31 36 4 -1
BITMAP
00007C00
0003FF00
000FFFC0
001F03E0
007C01E0
00F800F0
00F000F0
01E000F8
03E00078
03C00078
07C00078
07800078
0F800078
0F000078
1F000078
1F0000F8
1E0000F8
1E0000F8
3E0000F8
3E0000F0
3E0001F0
3C0001F0
3C0001E0
3C0003E0
3C0003C0
3C0003C0
3C000780
3C000F80
1E000F00
1E001E00
1E003E00
0F007C00
0781F800
03FFE000
01FF8000
003E0000
ENDCHAR

STARTCHAR one
ENCODING 49
SWIDTH 620 0
DWIDTH 31 0
BBX 21 34 7 0
BITMAP
0000E0
0003E0
001FE0
007FE0
00FFC0
0003C0
0003C0
0003C0
000380
000780
000780
000780
000700
000F00
000F00
000F00
000F00
001E00
001E00
001E00
001E00
001C00
003C00
003C00
003C00
003800
007800
007800
007800
007800
00F800
01F800
3FFFC0
3FFFC0
ENDCHAR

STARTCHAR two
ENCODING 50
SWIDTH 620 0
DWIDTH 31 0
BBX 33 36 1 -1
BITMAP
0000FF0000
0007FFE000
000FFFF000
001F03F800
003C00FC00
0070007C00
00E0003E00
00E0003E00
00C0001E00
01C0001E00
0180001E00
0180001E00
0180003E00
0180003C00
0000007C00
0000007800
000000F000
000001F000
000003E000
0000078000
00000F0000
00003E0000
0000780000
0000F00000
0003E00000
0007800000
000E000000
003C003000
0070007000
01E0006000
078000E000
0FFFFFC000
3FFFFFC000
3FFFFFC000
3FFFFF8000
0000018000
ENDCHAR

STARTCHAR three
ENCODING 51
SWIDTH 620 0
DWIDTH 31 0
BBX 31 36 3 -1
BITMAP
0000FE00
0007FFC0
000FFFE0
003E07F0
003801F0
007000F8
00E000F8
00E00078
00C00078
01C00078
00000078
000000F8
000000F0
000001E0
000007C0
00003F80
0007FE00
0007FC00
00003F00
00000F80
000007C0
000003C0
000003E0
000001E0
000001E0
000001E0
380001E0
3C0003E0
3C0003C0
3C0007C0
3E000780
1E000F80
0F003F00
07E0FC00
03FFF800
007FC000
ENDCHAR

STARTCHAR four
ENCODING 52
SWIDTH 620 0
DWIDTH 31 0
BBX 30 34 3 0
BITMAP
000001E0
000003E0
000007E0
00001FC0
00003FC0
00007BC0
0000F3C0
0001E780
0003C780
00078780
000F0780
001C0780
00380F00
00F00F00
01E00F00
03C00F00
07801E00
0F001E00
1E001E00
1C001E00
3FFFFFF8
3FFFFFF8
3FFFFFF0
00003C00
00003C00
00007800
00007800
00007800
00007800
0000F000
0000F000
0000F000
0000F000
0000F000
ENDCHAR

STARTCHAR five
ENCODING 53
SWIDTH 620 0
DWIDTH 31 0
BBX 32 36 4 -1
BITMAP
0000000C
001FFFFC
001FFFFC
003FFFFC
003FFFF8
00300000
00700000
00700000
00600000
00600000
00E00000
00E00000
00C00000
00FFF000
01FFFC00
01FFFF00
01807F80
00001FC0
000007C0
000007E0
000003E0
000003E0
000001E0
000001E0
000001E0
000001E0
180003E0
3C0003C0
3C0003C0
3C000780
3E000F80
3E001F00
1F003E00
0FC1FC00
03FFF000
00FF8000
ENDCHAR

STARTCHAR six
ENCODING 54
SWIDTH 620 0
DWIDTH 31 0
BBX 31 35 4 -1
BITMAP
000003F8
00007FF8
0001FFF8
0007F000
001F8000
003E0000
007C0000
00F80000
01F00000
03E00000
03C00000
07C00000
0F83F000
0F9FFC00
0F3FFF00
1FF01F80
1FE007C0
1F8003C0
3F8003E0
3F0003E0
3E0001E0
3E0001E0
3E0001E0
3C0001E0
3C0001E0
3C0003E0
3C0003E0
3E0007C0
1E0007C0
1E000F80
0F001F00
07803E00
07E1FC00
01FFF000
007FC000
ENDCHAR

STARTCHAR seven
ENCODING 55
SWIDTH 620 0
DWIDTH 31 0
BBX 31 35 7 0
BITMAP
03000000
03FFFFFC
07FFFFF8
07FFFFF8
0FFFFFF0
0C0000E0
1C0001C0
18000380
38000700
30000E00
00001C00
00003800
00007800
0000F000
0001E000
0001C000
0003C000
00078000
000F0000
000F0000
001E0000
003E0000
003C0000
00780000
00F80000
00F00000
01F00000
01E00000
03E00000
03C00000
07C00000
07C00000
07800000
0F800000
0F800000
ENDCHAR

STARTCHAR eight
ENCODING 56
SWIDTH 620 0
DWIDTH 31 0
BBX 30 36 4 -1
BITMAP
0007FC00
001FFF00
007E0FC0
00F803E0
00F001E0
01E000F0
01C000F0
03C000F0
03C000F0
03C000F0
03C001E0
03E001E0
01F003C0
01F80780
00FE0E00
007FBC00
001FF000
007FF800
01F3FC00
03C0FF00
07803F80
0F001F80
1E0007C0
3C0007C0
380003C0
780003C0
780003C0
780003C0
780003C0
78000780
3C000780
3E000F00
1F003E00
0FC0FC00
03FFF000
00FFC000
ENDCHAR

STARTCHAR nine
ENCODING 57
SWIDTH 620 0
DWIDTH 31 0
BBX 31 35 4 0
BITMAP
0007FC00
001FFF00
007E0FC0
00F803E0
01F001E0
03E000F0
03C000F0
07C00078
07800078
0F800078
0F800078
0F000078
0F0000F8
0F0000F8
0F0000F8
0F8001F8
0F8001F8
07C003F8
07E00FF0
03F01FF0
01FFF9E0
007FF1E0
000F83E0
000007C0
00000780
00000F80
00001F00
00003E00
00007C00
0000F800
0003F000
001FC000
1FFF0000
3FFC0000
3F800000
ENDCHAR

STARTCHAR colon
ENCODING 58
SWIDTH 300 0
DWIDTH 15 0
BBX 12 26 4 -1
BITMAP
01C0
03E0
07E0
07E0
07C0
03C0
0000
0000
0000
0000
0000
0000
0000
0000
0000
0000
0000
0000
0000
0000
1C00
3E00
7E00
7E00
7C00
3800
ENDCHAR

STARTCHAR semicolon
ENCODING 59
SWIDTH 300 0
DWIDTH 15 0
BBX 16 33 0 -8
BITMAP
001C
003E
007E
007E
007C
0038
0000
0000
0000
0000
0000
0000
0000
0000
0000
0000
0000
0000
0000
03C0
07E0
07E0
07E0
07E0
00E0
00E0
01C0
0380
0780
0F00
1C00
3800
2000
ENDCHAR

STARTCHAR less
ENCODING 60
SWIDTH 600 0
DWIDTH 30 0
BBX 25 21 6 5
BITMAP
00000600
00001E00
00007E00
0003FC00
000FF000
003FC000
00FE0000
07F80000
1FC00000
7F000000
7C000000
7F000000
1FC00000
07F00000
01FE0000
007F8000
000FE000
0003FC00
0000FE00
00003E00
00000600
ENDCHAR

STARTCHAR equal
ENCODING 61
SWIDTH 600 0
DWIDTH 30 0
BBX 27 11 5 12
BITMAP
3FFFFF80
3FFFFF80
3FFFFF80
00000000
00000000
00000000
00000000
00000000
3FFFFF80
3FFFFF80
3FFFFF80
ENDCHAR

STARTCHAR greater
ENCODING 62
SWIDTH 600 0
DWIDTH 30 0
BBX 25 21 6 5
BITMAP
30000000
3C000000
3F000000
1FE00000
07F80000
01FE0000
003F8000
000FF000
0003FC00
00007F00
00001F00
00007F00
0001FC00
0007F000
003FC000
00FF0000
03F80000
1FE00000
3F800000
3E000000
30000000
ENDCHAR

STARTCHAR question
ENCODING 63
SWIDTH 540 0
DWIDTH 27 0
BBX 26 36 6 -1
BITMAP
01FF8000
07FFE000
0FE1F000
1F807800
3F003C00
3E001E00
1C001E00
00000F00
00000F00
00000F00
00000F00
00000F00
00000F00
00001F00
00001E00
00003E00
0000FC00
0003F800
03FFF000
03FFC000
03FE0000
07000000
07000000
06000000
06000000
0E000000
0E000000
00000000
00000000
00000000
1C000000
3E000000
7E000000
7E000000
7C000000
38000000
ENDCHAR

STARTCHAR at
ENCODING 64
SWIDTH 780 0
DWIDTH 39 0
BBX 46 46 1 -11
BITMAP
00001FFE0000
0000FC07C000
0003C000E000
000700003800
001C00000C00
003800000600
007000000300
00E000000100
01C000000180
038000000080
0300000000C0
070001E1C040
0600071BC040
0E000C0B8060
0C00380F8060
1C00780F8060
1800700F0060
1800E00F0060
1801E00F0060
3801C00F0060
3003C00E0040
3003801E0040
3007801E00C0
3007803C00C0
3007003C0180
300F007C0180
300F007C0300
300F00B80300
380F01780600
180F03780C00
180F8E781818
1807FC787010
0C07F03FC030
0C01E01F0020
0E0000000060
0600000000C0
0300000000C0
038000000180
01C000000300
00E000000600
007000001C00
003800003800
000E0000E000
0003C0078000
0000FFFE0000
00000FE00000
ENDCHAR

STARTCHAR A
ENCODING 65
SWIDTH 700 0
DWIDTH 35 0
BBX 38 34 -1 0
BITMAP
000001F000
000001F000
000003F000
000007F000
000007F000
00000EF800
00000E7800
00001C7800
0000187800
0000387800
0000707C00
0000707C00
0000E03C00
0000E03C00
0001C03C00
0003803C00
0003803E00
0007003E00
0007001E00
000FFFFE00
001FFFFE00
001C001F00
0038001F00
0038001F00
0070000F00
00F0000F00
00E0000F00
01C0000F80
01C0000F80
0380000F80
0780000F80
0FC0000FC0
7FF800FFF0
7FF800FFF0
ENDCHAR

STARTCHAR B
ENCODING 66
SWIDTH 720 0
DWIDTH 36 0
BBX 40 34 0 0
BITMAP
003FFFFF00
007FFFFFE0
000FFFFFF8
0007C000FC
000780007C
000780003E
000780003E
000F80003E
000F80003E
000F00003E
000F00007C
000F00007C
001F0000F8
001E0003F0
001E001FC0
001FFFFF00
003FFFFE00
003E001FC0
003E0003E0
003C0001F0
007C0000F0
007C0000F8
007C0000F8
00780000F8
00780000F8
00F80000F8
00F80001F0
00F00001F0
00F00003E0
01F0000FC0
01F0003F80
07FFFFFF00
3FFFFFFC00
3FFFFF8000
ENDCHAR

STARTCHAR C
ENCODING 67
SWIDTH 720 0
DWIDTH 36 0
BBX 37 36 4 -1
BITMAP
00001FC000
0001FFF860
0007FFFCE0
000FE03FE0
003F000FE0
007E0007E0
00F80003E0
01F80001E0
03F00001E0
03E00000E0
07C00000E0
0FC0000060
0F80000040
1F80000000
1F00000000
1F00000000
1F00000000
3F00000000
3E00000000
3E00000000
3E00000000
3E00000000
3E00000000
3E00000000
3F00000000
3F00000000
1F00000180
1F80000380
0F80000700
0FC0000E00
07E0003C00
03F000F800
01FC07E000
00FFFFC000
007FFF0000
000FF80000
ENDCHAR

STARTCHAR D
ENCODING 68
SWIDTH 740 0
DWIDTH 37 0
BBX 41 34 0 0
BITMAP
007FFFF00000
007FFFFF0000
000FFFFF8000
0007801FE000
00078003F000
00078001F800
000F8000F800
000F00007C00
000F00007C00
000F00003E00
001F00003E00
001F00003E00
001E00003E00
001E00003E00
003E00003E00
003E00003E00
003C00003E00
003C00003E00
003C00007C00
007C00007C00
007800007C00
00780000F800
00780000F800
00F80001F000
00F80003F000
00F00003E000
00F00007C000
00F0000F8000
01F0001F8000
01E0007E0000
03E003FC0000
07FFFFF00000
3FFFFF800000
3FFFF8000000
ENDCHAR

STARTCHAR E
ENCODING 69
SWIDTH 680 0
DWIDTH 34 0
BBX 39 34 0 0
BITMAP
003FFFFFC0
007FFFFFE0
000FFFFFE0
0007C003E0
00078001F0
0007800070
0007800070
0007800038
000F800038
000F003800
000F003800
000F003000
001F007000
001E00F000
001E01F000
001FFFE000
003FFFE000
003C03E000
003C01E000
003C00C000
003C00C000
007C00C000
007801C020
0078000070
00780000E0
00F80000E0
00F00001C0
00F00003C0
00F0000780
01F0001F80
01F0007F00
03FFFFFF00
3FFFFFFE00
3FFFFFFE00
ENDCHAR

STARTCHAR F
ENCODING 70
SWIDTH 620 0
DWIDTH 31 0
BBX 38 34 0 0
BITMAP
003FFFFFC0
007FFFFFC0
000FFFFFE0
0007C007E0
00078001E0
00078000F0
0007800070
000F800030
000F000038
000F000020
000F003000
000F003000
001E007000
001E007000
001E00E000
001E03E000
003FFFE000
003FFFE000
003C07C000
003C01C000
007C01C000
007801C000
007801C000
0078018000
0078000000
00F8000000
00F0000000
00F0000000
00F0000000
01F0000000
01F0000000
03F0000000
3FFF000000
3FFE000000
ENDCHAR

STARTCHAR G
ENCODING 71
SWIDTH 760 0
DWIDTH 38 0
BBX 39 36 4 -1
BITMAP
00001FC000
0001FFF8E0
0007FFFCE0
000FC03FE0
003F000FE0
007E0007E0
00F80003E0
01F00001E0
03F00001E0
03E00000E0
07C00000E0
0FC00000E0
0F80000000
1F80000000
1F00000000
1F00000000
1F00000000
3F00000000
3E0000FFFC
3E0000FFFC
3E00000FC0
3E00000F80
3E00000F80
3E00000F80
3E00000F00
3F00000F00
1F00000F00
1F00001F00
0F80001E00
0FC0003E00
07C0007E00
03F001FE00
01FC07FC00
00FFFF9C00
003FFE1C00
0007F00000
ENDCHAR

STARTCHAR H
ENCODING 72
SWIDTH 800 0
DWIDTH 40 0
BBX 47 34 0 0
BITMAP
003FFE00FFFC
007FFE00FFFC
0007E0001FC0
0007C0000F80
0007C0000F00
000780000F00
000780001F00
000780001F00
000F80001E00
000F00001E00
000F00001E00
000F00003E00
001F00003C00
001F00003C00
001E00003C00
001FFFFFFC00
001FFFFFF800
003FFFFFF800
003C00007800
003C0000F800
003C0000F800
007C0000F000
00780000F000
00780000F000
00780001F000
00F80001E000
00F80001E000
00F00001E000
00F00003E000
01F00003E000
01F00003E000
03F80007E000
3FFF007FFC00
3FFF007FFC00
ENDCHAR

STARTCHAR I
ENCODING 73
SWIDTH 320 0
DWIDTH 16 0
BBX 24 34 0 0
BITMAP
007FFC
007FFC
000FC0
000F80
000780
000F80
000F00
000F00
000F00
001F00
001F00
001E00
001E00
001E00
003E00
003C00
003C00
003C00
007C00
007800
007800
007800
00F800
00F800
00F000
00F000
00F000
01F000
01E000
01E000
03E000
07F000
3FFE00
7FFE00
ENDCHAR

STARTCHAR J
ENCODING 74
SWIDTH 560 0
DWIDTH 28 0
BBX 36 35 1 -1
BITMAP
000007FFC0
000007FFC0
000000FC00
0000007800
0000007800
000000F800
000000F000
000000F000
000000F000
000000F000
000001F000
000001E000
000001E000
000001E000
000003E000
000003C000
000003C000
000003C000
000007C000
000007C000
0000078000
0000078000
1C00078000
3C000F8000
7C000F0000
7C000F0000
78001F0000
78001E0000
78003E0000
3C007C0000
3C00F80000
1F01F00000
0FFFE00000
07FF800000
00FC000000
ENDCHAR

STARTCHAR K
ENCODING 75
SWIDTH 720 0
DWIDTH 36 0
BBX 43 34 1 0
BITMAP
007FFC0FFF80
007FFC0FFF80
000FC001FC00
000F8001F000
000F8003C000
000F00078000
000F000F0000
000F003E0000
001F00780000
001E00F00000
001E01E00000
001E03C00000
001E07800000
003E1E000000
003C3E000000
003C7E000000
003CFF000000
007DCF000000
007F8F800000
007F07800000
007E07C00000
00F803C00000
00F803E00000
00F001E00000
00F001F00000
00F000F00000
01F000F80000
01E000780000
01E0007C0000
01E0003E0000
03E0003E0000
07F0007F0000
7FFE03FFE000
7FFE03FFE000
ENDCHAR

STARTCHAR L
ENCODING 76
SWIDTH 580 0
DWIDTH 29 0
BBX 33 34 0 0
BITMAP
003FFE0000
007FFE0000
0007E00000
0007C00000
0007800000
0007800000
0007800000
000F800000
000F000000
000F000000
000F000000
000F000000
001F000000
001E000000
001E000000
001E000000
003E000000
003C000000
003C000000
003C000000
007C000000
007C000000
0078000400
0078000600
0078000E00
00F8001C00
00F0001C00
00F0003800
00F0007800
01F001F000
01F007F000
03FFFFE000
3FFFFFE000
3FFFFFC000
ENDCHAR

STARTCHAR M
ENCODING 77
SWIDTH 860 0
DWIDTH 43 0
BBX 50 34 0 0
BITMAP
007FF00003FF80
007FF00007FF80
000FF00007F800
0007F0000FF000
000778001DE000
000778001DE000
0006780039E000
000E78003BE000
000E780073C000
000E780073C000
000E7800E3C000
001C7800C7C000
001C7801C78000
001C7803878000
001C3C03878000
00183C070F8000
00383C070F8000
00383C0E0F0000
00383C0E0F0000
00383C1C0F0000
00703C181F0000
00703C381E0000
00703C701E0000
00703C701E0000
00E01EE03E0000
00E01EE03E0000
00E01FC03C0000
00E01FC03C0000
00C01F803C0000
01C01F007C0000
01C01F007C0000
03E01E00FC0000
3FFC1E0FFFC000
3FFC0C0FFF8000
ENDCHAR

STARTCHAR N
ENCODING 78
SWIDTH 720 0
DWIDTH 36 0
BBX 44 34 0 0
BITMAP
003FF001FFE0
007FF801FFC0
000FF8003E00
000778003C00
00077C003800
00073C003800
00073C003800
00063E003000
000E1E007000
000E1E007000
000E1F007000
000C0F007000
001C0F00E000
001C0F80E000
001C0780E000
001807C0E000
003807C0C000
003803C1C000
003803E1C000
003803E1C000
003001E18000
007001F38000
007000F38000
007000F38000
006000FB8000
00E0007B0000
00E0007F0000
00E0007F0000
00E0003F0000
01C0003E0000
01C0003E0000
03E0001E0000
3FFC001E0000
3FFC001E0000
ENDCHAR

STARTCHAR O
ENCODING 79
SWIDTH 760 0
DWIDTH 38 0
BBX 38 36 4 -1
BITMAP
00003F8000
0001FFF000
000FFFFC00
001FC07E00
007E001F00
00FC000F80
01F00007C0
03E00003C0
07E00003E0
07C00003E0
0F800001F0
0F800001F0
1F000001F0
1F000001F0
3E000001F0
3E000001F0
3E000001F0
7C000001F0
7C000001F0
7C000003E0
7C000003E0
7C000003E0
7C000007E0
7C000007C0
7C00000FC0
3C00000F80
3E00001F00
3E00003F00
1E00003E00
1F00007C00
0F8001F800
07C003F000
03F01FC000
01FFFF8000
007FFC0000
000FE00000
ENDCHAR

STARTCHAR P
ENCODING 80
SWIDTH 600 0
DWIDTH 30 0
BBX 37 34 0 0
BITMAP
007FFFF000
007FFFFE00
000FFFFF00
0007C01F80
00078007C0
00078007E0
00078003E0
000F8003E0
000F0003E0
000F0003E0
000F0003E0
001F0003E0
001F0007C0
001E0007C0
001E000F80
001E001F00
003E007E00
003FFFFC00
003FFFF000
003FFF0000
007C000000
007C000000
0078000000
0078000000
00F8000000
00F8000000
00F0000000
00F0000000
00F0000000
01F0000000
01F0000000
03F0000000
3FFF000000
3FFE000000
ENDCHAR

STARTCHAR Q
ENCODING 81
SWIDTH 780 0
DWIDTH 39 0
BBX 38 44 5 -9
BITMAP
00003F8000
0001FFF000
000FFFFC00
001FC07E00
007E001F00
00FC000F80
01F00007C0
03E00003C0
07E00003E0
07C00003E0
0F800001F0
0F800001F0
1F000001F0
1F000001F0
3E000001F0
3E000001F0
3E000001F0
7C000001F0
7C000001F0
7C000003E0
7C000003E0
7C000003E0
7C000007E0
7C000007C0
7C00000FC0
3C00000F80
3E00001F00
3E00003F00
1F00007E00
1F0000FC00
0F8001F800
07C003F000
03F01FC000
00FFFF0000
007FFC0000
000F800000
000F000000
000F000000
000F000000
000F802000
000FC0F000
0007FFE000
0003FF8000
0000FC0000
ENDCHAR

STARTCHAR R
ENCODING 82
SWIDTH 700 0
DWIDTH 35 0
BBX 39 34 1 0
BITMAP
007FFFFC00
007FFFFF80
001FFFFFE0
000F8007F0
000F8001F0
000F8001F8
000F0000F8
000F0000F8
000F0000F8
001F0000F8
001E0000F8
001E0001F0
001E0001F0
003E0003E0
003E0007C0
003C003F80
003FFFFF00
003FFFF800
007C1E0000
00781F0000
00780F0000
00780F8000
00F807C000
00F807C000
00F003E000
00F001E000
01F001F000
01F000F000
01E000F800
01E0007C00
03E0007C00
07F0003F00
3FFE003FE0
7FFE001FC0
ENDCHAR

STARTCHAR S
ENCODING 83
SWIDTH 640 0
DWIDTH 32 0
BBX 33 36 4 -1
BITMAP
0001FC0000
000FFF8600
003FFFCE00
007C03FE00
00F000FE00
01E0007E00
01E0003E00
03C0001E00
03C0000E00
03C0000E00
03C0000E00
03E0000600
01F0000000
01FC000000
00FF000000
007FE00000
003FF80000
000FFF0000
0001FFC000
00007FE000
00000FF000
000003F000
000001F800
380000F800
380000F800
3800007800
3C00007800
3C00007800
3E0000F800
3F0000F000
3F0001E000
3FC003E000
3BF00FC000
31FFFF0000
207FFC0000
000FE00000
ENDCHAR

STARTCHAR T
ENCODING 84
SWIDTH 600 0
DWIDTH 30 0
BBX 34 35 4 0
BITMAP
0180000600
03FFFFFE00
07FFFFFE00
07E0F07E00
0F80F01E00
0F01F00F00
1E01F00700
1C01E00700
3801E00700
3001E00300
1003E00000
0003C00000
0003C00000
0003C00000
0007C00000
0007C00000
0007800000
0007800000
0007800000
000F800000
000F000000
000F000000
000F000000
001F000000
001F000000
001E000000
001E000000
001E000000
003E000000
003C000000
003C000000
007C000000
00FE000000
07FFC00000
0FFFC00000
ENDCHAR

STARTCHAR U
ENCODING 85
SWIDTH 720 0
DWIDTH 36 0
BBX 39 35 5 -1
BITMAP
1FFF003FFC
3FFF003FF8
03F00007C0
03E0000780
03E0000700
03C0000700
03C0000700
03C0000700
07C0000E00
0780000E00
0780000E00
0780000E00
0F80000C00
0F80001C00
0F00001C00
0F00001C00
0F00001C00
1F00003800
1E00003800
1E00003800
1E00003800
3E00007000
3E00007000
3C00007000
3C00007000
3C0000E000
3C0000E000
3E0001C000
3E0003C000
1F00078000
1F800F0000
0FE03E0000
07FFFC0000
01FFF00000
007F800000
ENDCHAR

STARTCHAR V
ENCODING 86
SWIDTH 680 0
DWIDTH 34 0
BBX 37 34 6 0
BITMAP
3FFC00FFF0
7FFC00FFE0
0FC0001F00
07C0001E00
0780001E00
07C0001C00
07C0003C00
07C0003800
03C0007000
03C0007000
03C000E000
03C001E000
03E001C000
03E0038000
03E0038000
01E0070000
01E0070000
01E00E0000
01E01E0000
01F01C0000
01F0380000
00F0380000
00F0700000
00F0700000
00F0E00000
00F0E00000
00F9C00000
007B800000
007B800000
007F000000
007F000000
007E000000
007E000000
007C000000
ENDCHAR

STARTCHAR W
ENCODING 87
SWIDTH 960 0
DWIDTH 48 0
BBX 51 34 6 0
BITMAP
3FFC1FFE03FF80
3FFC1FFE03FF80
0FC007F0007C00
07C003E0007800
07C003E0007000
07C003E0007000
07C001E000E000
07C001E000E000
03C003E001C000
03C003E001C000
03C007E0038000
03C007E0038000
03C00FE0070000
03C00FE0070000
03C01DF00E0000
03E01DF00E0000
03E039F01C0000
03E039F01C0000
03E070F0380000
01E070F0380000
01E0E0F0700000
01E0C0F0700000
01E1C0F0E00000
01E180F0E00000
01E380F1C00000
01E700F1C00000
01E700FB800000
01EE00FB800000
01FE007F000000
00FC007F000000
00FC007E000000
00F8007C000000
00F8007C000000
00F00078000000
ENDCHAR

STARTCHAR X
ENCODING 88
SWIDTH 700 0
DWIDTH 35 0
BBX 43 34 -1 0
BITMAP
003FFE03FFC0
003FFC03FF80
000FE000FC00
0007E0007800
0003E000F000
0003E001E000
0001F003C000
0001F0078000
0000F80F0000
0000F81E0000
00007C3C0000
00003C780000
00003EF00000
00001FE00000
00001FC00000
00000F800000
00000F800000
00001FC00000
00003FC00000
000073E00000
0000F3E00000
0001E1F00000
0003C1F00000
000780F80000
000F00F80000
001E007C0000
003C007C0000
0078003E0000
00F0003E0000
01E0001F0000
03C0001F8000
0FC0001FC000
7FF800FFF000
7FF801FFF000
ENDCHAR

STARTCHAR Y
ENCODING 89
SWIDTH 660 0
DWIDTH 33 0
BBX 36 34 6 0
BITMAP
3FFC01FFC0
7FFC01FFC0
0FC0003E00
07C0003C00
07C0007800
03E0007000
03E000E000
01E001E000
01F003C000
01F0038000
00F0070000
00F80E0000
00781E0000
007C3C0000
007C380000
003C700000
003EE00000
001FC00000
001FC00000
001F800000
000F000000
000F000000
000F000000
001F000000
001E000000
001E000000
001E000000
003E000000
003E000000
003C000000
007C000000
00FE000000
07FFC00000
07FFC00000
ENDCHAR

STARTCHAR Z
ENCODING 90
SWIDTH 580 0
DWIDTH 29 0
BBX 36 34 0 0
BITMAP
001FFFFFC0
003FFFFFC0
003FFFFFC0
007F001F80
007C003F00
00F0007E00
00E000FC00
01C000F800
038001F000
038003E000
000007C000
00000F8000
00001F8000
00003F0000
00007E0000
0000FC0000
0001F80000
0003F00000
0003E00000
0007C00000
000F800000
001F000000
003F000400
007E000E00
00FC000E00
01F8001C00
03F0003C00
07E0007800
0FC000F000
0F8003F000
1F001FE000
3FFFFFE000
7FFFFFC000
7FFFFFC000
ENDCHAR

STARTCHAR bracketleft
ENCODING 91
SWIDTH 260 0
DWIDTH 13 0
BBX 21 47 0 -12
BITMAP
000FF0
000FE0
000E00
000E00
001E00
001E00
001C00
001C00
001C00
003C00
003800
003800
003800
007800
007800
007000
007000
00F000
00F000
00E000
00E000
00E000
01E000
01C000
01C000
01C000
03C000
03C000
038000
038000
078000
078000
070000
070000
070000
0F0000
0F0000
0E0000
0E0000
1E0000
1E0000
1C0000
1C0000
1C0000
3C0000
3F8000
3F8000
ENDCHAR

STARTCHAR backslash
ENCODING 92
SWIDTH 600 0
DWIDTH 30 0
BBX 31 42 2 -6
BITMAP
38000000
3C000000
1C000000
0E000000
0E000000
07000000
07800000
03800000
03C00000
01C00000
00E00000
00E00000
00700000
00780000
00380000
003C0000
001C0000
000E0000
000F0000
00070000
00078000
00038000
0001C000
0001C000
0000E000
0000F000
00007000
00007800
00003800
00001C00
00001C00
00000E00
00000F00
00000700
00000780
00000380
000001C0
000001E0
000000E0
000000F0
00000070
00000078
ENDCHAR

STARTCHAR bracketright
ENCODING 93
SWIDTH 260 0
DWIDTH 13 0
BBX 21 47 -3 -12
BITMAP
000FE0
000FE0
0001E0
0001C0
0001C0
0001C0
0003C0
000380
000380
000380
000780
000780
000700
000700
000F00
000F00
000E00
000E00
000E00
001E00
001C00
001C00
001C00
003C00
003C00
003800
003800
003800
007800
007000
007000
007000
00F000
00F000
00E000
00E000
01E000
01E000
01C000
01C000
01C000
03C000
038000
038000
038000
3F8000
7F8000
ENDCHAR

STARTCHAR asciicircum
ENCODING 94
SWIDTH 600 0
DWIDTH 30 0
BBX 27 20 5 15
BITMAP
000E0000
001F0000
001F0000
003F8000
003B8000
007BC000
0071C000
00F1E000
00E0F000
01E0F000
03C07800
03C03800
07803C00
07001C00
0F001E00
0E000E00
1E000F00
1C000700
3C000780
38000380
ENDCHAR

STARTCHAR underscore
ENCODING 95
SWIDTH 500 0
DWIDTH 25 0
BBX 29 3 -2 -6
BITMAP
3FFFFFE0
3FFFFFE0
3FFFFFE0
ENDCHAR

STARTCHAR quoteleft
ENCODING 96
SWIDTH 280 0
DWIDTH 14 0
BBX 12 14 8 22
BITMAP
0040
01E0
0380
0700
1E00
1C00
3800
3000
7C00
7E00
7F00
3F00
3E00
0C00
ENDCHAR

STARTCHAR a
ENCODING 97
SWIDTH 620 0
DWIDTH 31 0
BBX 32 26 3 -1
BITMAP
0007C000
001FF8E0
007FFCE0
00F80FE0
01F007E0
03E003C0
07C003C0
0F8003C0
0F0003C0
1F0007C0
1F000780
1E000780
3E000F80
3E000F80
3C000F00
3C001F00
3C003F00
3C003F00
3C007F00
3C00FE00
3E01DE00
1E039E0C
1F071E1C
0FFE1F38
07FC0FF0
01E007C0
ENDCHAR

STARTCHAR b
ENCODING 98
SWIDTH 600 0
DWIDTH 30 0
BBX 29 38 4 -1
BITMAP
00180000
00780000
0FF80000
0FF80000
0FF00000
00F00000
00F00000
00F00000
00F00000
01E00000
01E00000
01E00000
01E07C00
01C1FF00
03C3FF80
03CF07C0
03DE03E0
03DC03E0
07B801E0
07F001E0
07E001E0
07C001E0
07C001E0
0F8001E0
0F8003E0
0F0003E0
0F0003C0
1F0007C0
1E000780
1E000F80
1E000F00
1E001F00
3C003E00
3E007C00
3F00F800
3BC3F000
79FFC000
007F0000
ENDCHAR

STARTCHAR c
ENCODING 99
SWIDTH 480 0
DWIDTH 24 0
BBX 26 26 3 -1
BITMAP
000FF000
003FFC00
00FE3E00
01F01F00
03E00F00
07C00F00
07800F00
0F800F00
1F000F00
1F000000
1E000000
3E000000
3E000000
3E000000
3C000000
3C000000
3C000000
3C000000
3E000400
3E000E00
1F001C00
1F007800
0FC1F000
07FFE000
03FF8000
007C0000
ENDCHAR

STARTCHAR d
ENCODING 100
SWIDTH 640 0
DWIDTH 32 0
BBX 33 37 3 -1
BITMAP
0000001E00
000001FE00
000003FC00
000003FC00
0000003C00
0000003C00
0000003C00
0000007800
0000007800
0000007800
0000007800
0003E07000
001FFCF000
007FFEF000
00FC0FF000
01F003F000
03E001E000
07C001E000
078001E000
0F8001E000
1F0003C000
1F0003C000
1E0003C000
3E0007C000
3E0007C000
3E00078000
3C000F8000
3C001F8000
3C001F8000
3C003F0000
3E007F0000
3E00EF0600
1E01CF0E00
1F878F9C00
0FFF07F800
07FE03E000
01F0000000
ENDCHAR

STARTCHAR e
ENCODING 101
SWIDTH 540 0
DWIDTH 27 0
BBX 27 26 3 -1
BITMAP
0007F800
003FFE00
007E1F00
01F80F80
03E00780
07C00780
0F800780
0F000780
1F000F00
1E001E00
3E007C00
3C07F800
3FFFC000
7FFC0000
7C000000
7C000000
7C000000
7C000000
3C000000
3E000600
3E001E00
1F003C00
1FC1F800
0FFFE000
03FF8000
00FC0000
ENDCHAR

STARTCHAR f
ENCODING 102
SWIDTH 340 0
DWIDTH 17 0
BBX 35 48 -6 -12
BITMAP
000000FF00
000003FF80
0000078FC0
00000707C0
00000F03C0
00001E0000
00001E0000
00001C0000
00003C0000
00003C0000
00003C0000
00003C0000
0007FFE000
0007FFE000
000FFFC000
0000780000
0000700000
0000F00000
0000F00000
0000F00000
0000F00000
0001E00000
0001E00000
0001E00000
0001E00000
0001C00000
0003C00000
0003C00000
0003C00000
0003C00000
0003800000
0007800000
0007800000
0007800000
0007000000
000F000000
000F000000
000F000000
000F000000
000E000000
001E000000
001C000000
001C000000
3838000000
7C78000000
7FF0000000
3FC0000000
0F00000000
ENDCHAR

STARTCHAR g
ENCODING 103
SWIDTH 560 0
DWIDTH 28 0
BBX 31 37 0 -12
BITMAP
0000F000
0007FE38
001FFFB8
003F03F8
007C01F8
00F80078
01F00070
03E000F0
03E000F0
07C000F0
07C001F0
078001E0
0F8001E0
0F8003E0
0F8003E0
0F0007C0
0F0007C0
0F000FC0
0F001FC0
0F803BC0
0F807780
0780F780
07C1E780
03FF8780
01FF0780
00780F00
00000F00
00000F00
00001E00
00001E00
18003C00
3C003C00
3E007800
3F01F000
1F87E000
0FFF8000
03FE0000
ENDCHAR

STARTCHAR h
ENCODING 104
SWIDTH 620 0
DWIDTH 31 0
BBX 32 37 3 0
BITMAP
000C0000
007C0000
07F80000
07F80000
07F80000
00780000
00700000
00F00000
00F00000
00F00000
00F00000
01E00000
01E03E00
01E0FF00
01E3FF80
01C787C0
03CE03C0
03DC03C0
03F803C0
03F003C0
07F00380
07E00780
07C00780
07C00780
07800780
0F800700
0F800F00
0F000F00
0F000F00
0F000E00
1E001E00
1E001E00
1E001E0C
1E001E1C
3C001F38
3C000FF0
3C0007C0
ENDCHAR

STARTCHAR i
ENCODING 105
SWIDTH 280 0
DWIDTH 14 0
BBX 15 38 4 -1
BITMAP
0060
00F0
00F8
01F8
00F0
0060
0000
0000
0000
0000
0000
0000
00E0
07C0
3FC0
3FC0
03C0
0380
0780
0780
0780
0780
0F00
0F00
0F00
0F00
0E00
1E00
1E00
1E00
1C00
3C00
3C10
3C18
3C38
3EF0
1FE0
0F80
ENDCHAR

STARTCHAR j
ENCODING 106
SWIDTH 280 0
DWIDTH 14 0
BBX 27 49 -8 -12
BITMAP
00000300
00000780
00000FC0
00000FC0
00000780
00000300
00000000
00000000
00000000
00000000
00000000
00000000
00000600
00003E00
0003FE00
0003FE00
00003C00
00003C00
00003C00
00003C00
00007C00
00007800
00007800
00007800
00007800
0000F000
0000F000
0000F000
0000F000
0000F000
0001E000
0001E000
0001E000
0001E000
0003E000
0003C000
0003C000
0003C000
0003C000
00078000
00078000
00078000
00070000
100F0000
3C0E0000
3E1E0000
3F3C0000
3FF80000
0FE00000
ENDCHAR

STARTCHAR k
ENCODING 107
SWIDTH 600 0
DWIDTH 30 0
BBX 31 38 3 -1
BITMAP
000C0000
007C0000
07F80000
07F80000
0FF80000
00780000
00780000
00F00000
00F00000
00F00000
00F00000
01E00000
01E007E0
01E01FF0
01E07FF8
01E0F0F8
03C1C070
03C38000
03C70000
03CF0000
039F0000
07BF8000
07B78000
07E7C000
07E3C000
0FC3C000
0FC1E000
0F81E000
0F81E000
0F00F000
1F00F000
1E00F800
1E007808
1E007C1C
3C003C38
3C003FF0
3C001FE0
00000780
ENDCHAR

STARTCHAR l
ENCODING 108
SWIDTH 280 0
DWIDTH 14 0
BBX 14 36 4 -1
BITMAP
0070
03F0
1FE0
1FE0
01E0
01E0
01E0
03C0
03C0
03C0
03C0
0780
0780
0780
0780
0780
0F00
0F00
0F00
0F00
1E00
1E00
1E00
1E00
1E00
3C00
3C00
3C00
3C00
7800
7800
7830
7870
7CE0
3FC0
1F00
ENDCHAR

STARTCHAR m
ENCODING 109
SWIDTH 880 0
DWIDTH 44 0
BBX 44 25 4 0
BITMAP
00E0F803E000
03C3FC0FF000
3FCFFE1FF800
3FDE1F387C00
03DC0F703C00
03F80FE03C00
03F00FC03C00
07E00F803C00
07C00F803800
07C01F007800
07801F007800
0F801E007800
0F801E007800
0F003E007000
0F003C00F000
0F003C00F000
1E003C00F000
1E003C00F000
1E007800E000
1E007801E000
1E007801E0C0
3C007801E1C0
3C00F001F380
3C00F000FF00
3C00F0007C00
ENDCHAR

STARTCHAR n
ENCODING 110
SWIDTH 620 0
DWIDTH 31 0
BBX 31 26 4 -1
BITMAP
00C07C00
07C1FF00
3FC7FF00
7FCF0F80
039C0780
07B80780
07B00780
07E00780
07E00F80
0FC00F00
0F800F00
0F800F00
0F800F00
0F000F00
1F001E00
1E001E00
1E001E00
1E001E00
1E001C00
3C003C00
3C003C18
3C003C18
3C003C78
78003FF0
78001FC0
00000700
ENDCHAR

STARTCHAR o
ENCODING 111
SWIDTH 540 0
DWIDTH 27 0
BBX 27 26 3 -1
BITMAP
000FE000
003FF800
00FC7C00
01F01E00
03E00F00
07C00F00
0F800F80
0F000780
1F000780
1E000780
1E000780
3E000780
3E000780
3C000F80
3C000F80
3C000F00
3C000F00
3C001F00
3C001E00
3E003E00
1E007C00
1F007800
0F01F000
07C7E000
03FFC000
00FF0000
ENDCHAR

STARTCHAR p
ENCODING 112
SWIDTH 600 0
DWIDTH 30 0
BBX 36 36 -3 -11
BITMAP
000180F800
000F83FE00
007F87FF00
007F9E0F80
00079C07C0
00073807C0
000F7003C0
000FE003C0
000FC003C0
000F8003C0
000F8003C0
001F0003C0
001F0007C0
001E0007C0
001E000780
003E000F80
003C000F80
003C001F00
003C001F00
003C003E00
0078007C00
007C00F800
007E01F800
007F87E000
007BFFC000
00F0FF0000
00F0000000
00F0000000
00F0000000
01E0000000
01E0000000
01E0000000
03E0000000
07F0000000
3FFE000000
7FFE000000
ENDCHAR

STARTCHAR q
ENCODING 113
SWIDTH 560 0
DWIDTH 28 0
BBX 29 36 2 -11
BITMAP
0003C000
001FF8F0
007FFEE0
00FC0FE0
01F003E0
03E001E0
07C001C0
078003C0
0F8003C0
1F0003C0
1F0003C0
1E000780
3E000780
3E000F80
3E000F80
3C001F00
3C001F00
3C003F00
3C007F00
3E006F00
3E00DE00
1E03DE00
1F079E00
0FFE1E00
07FC1C00
01E03C00
00003C00
00003C00
00003C00
00007800
00007800
00007800
0000F800
0001FC00
001FFF80
001FFF80
ENDCHAR

STARTCHAR r
ENCODING 114
SWIDTH 400 0
DWIDTH 20 0
BBX 22 25 4 0
BITMAP
00C1F0
07C3F8
3FC7F8
3FCFF8
03DE70
03B800
07B000
07E000
07E000
07C000
07C000
0F8000
0F8000
0F0000
0F0000
1F0000
1E0000
1E0000
1E0000
1E0000
3C0000
3C0000
3C0000
3C0000
3C0000
ENDCHAR

STARTCHAR s
ENCODING 115
SWIDTH 540 0
DWIDTH 27 0
BBX 27 26 3 -1
BITMAP
003FF000
00FFFC00
01F87F00
03C01F80
03800F80
07800780
07800780
07800100
07E00000
03F00000
01FE0000
00FF8000
007FE000
001FF800
0003FC00
0000FE00
00003F00
30001F00
78000F00
7C000F00
7E000F00
3E001E00
1F803E00
0FE0FC00
03FFF000
007FC000
ENDCHAR

STARTCHAR t
ENCODING 116
SWIDTH 340 0
DWIDTH 17 0
BBX 18 33 4 -1
BITMAP
003000
003000
006000
006000
00E000
01E000
03E000
07C000
1FFF80
3FFF00
7FFF00
038000
078000
078000
078000
078000
0F0000
0F0000
0F0000
0F0000
0E0000
1E0000
1E0000
1E0000
1E0000
3C0000
3C0000
3C0600
3C1E00
3E3C00
1FF800
1FE000
078000
ENDCHAR

STARTCHAR u
ENCODING 117
SWIDTH 620 0
DWIDTH 31 0
BBX 32 26 3 -1
BITMAP
00600000
03E001E0
3FE001E0
3FE001E0
03C001C0
03C003C0
03C003C0
03C003C0
03C003C0
07800780
07800780
07800780
07800F80
0F000F00
0F001F00
0F001F00
0F003F00
0F003F00
1E007E00
1E00FE00
1E01DE00
1E039E0C
1F0F1E1C
0FFE1F78
07F80FF0
03E007C0
ENDCHAR

STARTCHAR v
ENCODING 118
SWIDTH 540 0
DWIDTH 27 0
BBX 27 26 3 -1
BITMAP
00000300
01E00780
0FE00780
3FC007C0
3FC007C0
03C003C0
03C003C0
03C003C0
03800380
07800380
07800380
07800300
07800700
07000600
0F000E00
0F001C00
0F001C00
0F003800
1E007000
1E00E000
1E01C000
1E03C000
1F0F0000
0FFE0000
07F80000
03E00000
ENDCHAR

STARTCHAR w
ENCODING 119
SWIDTH 880 0
DWIDTH 44 0
BBX 44 26 3 -1
BITMAP
000000000180
01E000F003C0
3FE000E003E0
3FE001E003E0
3FC001E003E0
03C001E001E0
03C001E001E0
03C003C001E0
03C003C001C0
078003C001C0
078003C001C0
078007C00180
078007800380
0F000F800380
0F000F800700
0F001F800700
0F001F000E00
0F003F000C00
1E007F001C00
1E006F003800
1E00EF007000
1E03CF00E000
1F078783C000
0FFE07FF8000
07FC03FE0000
03E000F00000
ENDCHAR

STARTCHAR x
ENCODING 120
SWIDTH 540 0
DWIDTH 27 0
BBX 32 26 0 -1
BITMAP
001C007C
007E00FC
01FE01FC
01FE03FC
001E0700
000F0E00
000F0C00
000F1800
0007B800
0007B000
0007E000
0003E000
0003C000
0007C000
000FE000
000DE000
001DE000
0018F000
0038F000
0070F000
00E07810
01E07838
3FC03C78
7F803FF0
3F001FC0
3C000F00
ENDCHAR

STARTCHAR y
ENCODING 121
SWIDTH 600 0
DWIDTH 30 0
BBX 31 37 1 -12
BITMAP
00180000
00F80078
0FF80078
0FF00078
00F00078
00F00078
00F000F0
00F000F0
00E000F0
01E001F0
01E001E0
01E001E0
01E003E0
03C003E0
03C003E0
03C007C0
03C00FC0
03800FC0
07801FC0
07803B80
07807780
0780E780
07C3C780
03FF8780
01FF0F00
00F80F00
00000F00
00000F00
00001E00
00001E00
18003C00
3C003C00
3E007800
3F01F000
1FC7E000
0FFF8000
03FE0000
ENDCHAR

STARTCHAR z
ENCODING 122
SWIDTH 520 0
DWIDTH 26 0
BBX 30 26 0 -1
BITMAP
007FC008
01FFFFF8
03F07FF0
03E003E0
07C007C0
07C00FC0
07801F80
03803F00
00007E00
0000FC00
0001F800
0003F000
0007E000
000FC000
001F8000
003F0000
007E0000
00FC00C0
01F801E0
03F001E0
07E001E0
0FC001E0
1F8003C0
3FFC0780
3FFFFF00
2003FC00
ENDCHAR

STARTCHAR braceleft
ENCODING 123
SWIDTH 360 0
DWIDTH 18 0
BBX 22 46 4 -11
BITMAP
000010
0000E0
000180
000700
000E00
001C00
001C00
003800
007800
007800
007800
007800
007800
007800
007800
007800
007000
00F000
00E000
01C000
018000
060000
380000
380000
0C0000
060000
030000
038000
038000
038000
038000
078000
078000
0F0000
0F0000
0E0000
1E0000
1E0000
1C0000
1C0000
1C0000
0C0000
0E0000
060000
038000
004000
ENDCHAR

STARTCHAR bar
ENCODING 124
SWIDTH 600 0
DWIDTH 30 0
BBX 6 47 15 -12
BITMAP
78
78
78
78
78
78
78
78
78
78
78
78
78
78
78
78
78
78
78
78
78
78
78
78
78
78
78
78
78
78
78
78
78
78
78
78
78
78
78
78
78
78
78
78
78
78
78
ENDCHAR

STARTCHAR braceright
ENCODING 125
SWIDTH 380 0
DWIDTH 19 0
BBX 22 46 -2 -11
BITMAP
000800
000700
000180
0000C0
0000C0
0000E0
0000E0
0000E0
0000E0
0001E0
0001E0
0003C0
0003C0
0003C0
000780
000780
000700
000700
000700
000300
000180
0000C0
000070
000070
000180
000300
000E00
001C00
001C00
003800
003800
007800
007800
007800
007800
007800
007800
007800
007000
007000
00E000
00C000
018000
070000
1C0000
200000
ENDCHAR

STARTCHAR asciitilde
ENCODING 126
SWIDTH 600 0
DWIDTH 30 0
BBX 25 9 6 12
BITMAP
00000400
03C00600
0FF00F00
1FFC1E00
3E7F3E00
3C1FFC00
7807F800
3001F000
10000000
ENDCHAR

STARTCHAR space
ENCODING 160
SWIDTH 300 0
DWIDTH 18 0
BBX 0 0 0 0
BITMAP
ENDCHAR

STARTCHAR Aogonek
ENCODING 161
SWIDTH 700 0
DWIDTH 35 0
BBX 38 43 -1 -9
BITMAP
000000F000
000001F000
000003F000
000003F800
0000077800
0000077800
00000E7800
00001C7800
00001C7C00
0000387C00
0000383C00
0000703C00
0000E03C00
0000E03C00
0001C03E00
0001C03E00
0003801E00
0007801E00
0007001E00
000FFFFE00
000FFFFF00
001C001F00
001C000F00
0038000F00
0078000F00
0070000F80
00E0000F80
00E0000F80
01C0000780
03C0000780
03800007C0
07C0000FC0
3FF800FFF8
7FF800FFF0
0000000180
0000000700
0000000E00
0000000C00
0000001C00
0000001C00
0000000C00
0000000F80
0000000380
ENDCHAR

STARTCHAR afii240
ENCODING 162
SWIDTH 444 0
DWIDTH 22 0
BBX 31 22 -5 0
BITMAP
01FFCFF8
003F07C0
003E0700
003E0600
003C0800
003C1000
003C2000
0038C000
0079C000
007BE000
007FE000
007DE000
00F8E000
00F0F000
00F0F000
00E07000
01E07800
01E07800
01E07C00
03E07C00
07F0FF00
3FF9FFE0
ENDCHAR

STARTCHAR Rcommaaccent
ENCODING 163
SWIDTH 700 0
DWIDTH 35 0
BBX 39 45 1 -11
BITMAP
007FFFFC00
007FFFFF80
001FFFFFE0
000F8007F0
000F8001F0
000F8001F8
000F0000F8
000F0000F8
000F0000F8
001F0000F8
001E0000F8
001E0001F0
001E0001F0
003E0003E0
003E000FC0
003C003F80
003FFFFF00
007FFFF800
007C1E0000
00781F0000
00780F0000
00780F8000
00F807C000
00F007C000
00F003E000
00F001E000
01F001F000
01F000F000
01E000F800
01E0007C00
03E0007C00
07F0003F00
3FFE003FE0
7FFE001FC0
0000000000
0000000000
0001C00000
0003E00000
0003E00000
0003E00000
0000600000
0000C00000
0001C00000
0003800000
0006000000
ENDCHAR

STARTCHAR currency
ENCODING 164
SWIDTH 600 0
DWIDTH 30 0
BBX 26 24 5 5
BITMAP
10000200
383F0700
7DFFEF80
3FFFFF00
1FC0FE00
0F003C00
0E001C00
1C000E00
1C000E00
38000700
38000700
38000700
38000700
38000700
38000700
1C000E00
1C000E00
0E001E00
0F003C00
1FC0FE00
3FFFFF00
7DFFEF80
383F0700
10000200
ENDCHAR

STARTCHAR Itilde
ENCODING 165
SWIDTH 320 0
DWIDTH 16 0
BBX 27 41 0 0
BITMAP
0007C180
000FFF00
001FFE00
00307C00
00000000
00000000
00000000
007FFC00
007FFC00
000FC000
000F8000
00078000
000F8000
000F0000
000F0000
000F0000
001F0000
001F0000
001E0000
001E0000
001E0000
003E0000
003C0000
003C0000
003C0000
007C0000
00780000
00780000
00780000
00F80000
00F80000
00F00000
00F00000
00F00000
01F00000
01E00000
01E00000
03E00000
07F00000
3FFE0000
7FFE0000
ENDCHAR

STARTCHAR Lcommaaccent
ENCODING 166
SWIDTH 580 0
DWIDTH 29 0
BBX 33 45 0 -11
BITMAP
007FFE0000
007FFC0000
000FE00000
0007C00000
0007800000
0007800000
0007800000
000F800000
000F000000
000F000000
000F000000
001F000000
001E000000
001E000000
001E000000
003E000000
003C000000
003C000000
003C000000
003C000000
007C000000
0078000000
0078000400
0078000600
00F8000E00
00F0001C00
00F0003C00
00F0007800
01F000F800
01F001F000
01E007F000
07FFFFE000
3FFFFFE000
3FFFFFC000
0000000000
0000000000
0007000000
000F800000
000F800000
000F800000
0001800000
0003000000
0007000000
000E000000
0018000000
ENDCHAR

STARTCHAR section
ENCODING 167
SWIDTH 620 0
DWIDTH 31 0
BBX 30 44 2 -9
BITMAP
0003FE00
000FFF80
001F07E0
003C01F0
007800F0
007000F0
00F000F8
00F000F0
00F00070
00F80000
007C0000
007E0000
003FC000
001FF800
003FFE00
0079FF00
00E03F80
01C00FC0
03C003C0
038001E0
078001E0
078001E0
078001E0
078001C0
03C001C0
03F00380
03FC0300
01FF8E00
007FFC00
001FF800
0007FC00
0000FE00
00003F00
00001F00
3C000F00
3C000F00
3C000F00
3C000F00
3E000E00
1E001E00
0F003C00
07C1F800
03FFE000
00FF8000
ENDCHAR

STARTCHAR hungarumlaut
ENCODING 168
SWIDTH 340 0
DWIDTH 17 0
BBX 14 9 8 27
BITMAP
0C30
1E78
1E78
1E78
3CF0
38E0
38C0
31C0
6180
ENDCHAR

STARTCHAR Scaron
ENCODING 169
SWIDTH 640 0
DWIDTH 32 0
BBX 33 43 4 -1
BITMAP
000700E000
0007C7C000
0001FF0000
0000FC0000
0000380000
0000000000
0000000000
0001FC0000
000FFF8600
003FFFCE00
007C03FE00
00F000FE00
01E0007E00
01E0003E00
03C0001E00
03C0000E00
03C0000E00
03C0000E00
03E0000600
01F0000000
01FC000000
00FF000000
007FE00000
003FF80000
000FFF0000
0001FF8000
00007FE000
00000FF000
000003F000
000001F800
380000F800
380000F800
3800007800
3C00007800
3C00007800
3E0000F800
3F0000F000
3F0001E000
3FC003E000
3BF00FC000
31FFFF0000
207FFC0000
000FE00000
ENDCHAR

STARTCHAR Emacron
ENCODING 170
SWIDTH 680 0
DWIDTH 34 0
BBX 39 41 0 0
BITMAP
00003FFF00
00003FFE00
00007FFE00
0000000000
0000000000
0000000000
0000000000
003FFFFFC0
007FFFFFE0
000FFFFFE0
0007C003E0
00078001F0
00078000F0
0007800070
0007800038
000F800038
000F003800
000F003800
000F003000
001F007000
001E00F000
001E01F000
001FFFE000
003FFFE000
003C03E000
003C01E000
003C00C000
003C00C000
007C00C000
007801C020
0078000070
00780000E0
00F80000E0
00F00001C0
00F00003C0
00F0000780
01F0001F80
01F0007F00
03FFFFFF00
3FFFFFFE00
3FFFFFFE00
ENDCHAR

STARTCHAR Gcommaaccent
ENCODING 171
SWIDTH 760 0
DWIDTH 38 0
BBX 40 46 4 -11
BITMAP
00001FC000
0000FFF860
0003FFFEE0
000FE03FE0
003F000FE0
007E0007E0
00FC0003E0
01F80001E0
03F00000E0
03E00000E0
07C00000E0
0FC0000060
0F80000000
0F80000000
1F00000000
1F00000000
1F00000000
3F00000000
3E0000FFFC
3E0000FFFC
3E00000FC0
3E000007C0
3E00000780
3E00000780
3F00000F80
3F00000F00
1F00000F00
1F80000F00
0F80001F00
0FC0001E00
07E0003E00
03F000FE00
01FC07FE00
00FFFFCC00
003FFE0C00
0003F00000
0000000000
0001C00000
0003E00000
0003E00000
0003E00000
0000600000
0000C00000
0001C00000
0003800000
0006000000
ENDCHAR

STARTCHAR afii237
ENCODING 172
SWIDTH 556 0
DWIDTH 28 0
BBX 33 33 1 0
BITMAP
03FFFFFE00
03FFFFFE00
03C0F01E00
0300F00E00
0600F00C00
0401E00C00
0401E00C00
0001E00800
0803E00800
0003C00000
0003C00000
0003C00000
0007800000
0007800000
0007800000
3FFFFFE000
3FFFFFE000
000F000000
001F000000
001E000000
001E000000
001E000000
003E000000
003C000000
003C000000
007C000000
0078000000
0078000000
00F8000000
00F8000000
01F8000000
03FC000000
1FFF800000
ENDCHAR

STARTCHAR hyphen
ENCODING 173
SWIDTH 320 0
DWIDTH 16 0
BBX 16 3 3 11
BITMAP
3FFE
3FFC
7FFC
ENDCHAR

STARTCHAR Zcaron
ENCODING 174
SWIDTH 580 0
DWIDTH 29 0
BBX 36 42 0 0
BITMAP
0000300600
00007C1F00
00001FFC00
00000FF000
000003C000
0000000000
0000000000
0000000000
001FFFFFC0
003FFFFFC0
003FFFFFC0
007F001F80
007C003F00
00F0007E00
00E000FC00
01C000F800
038001F000
038003E000
000007C000
00000F8000
00001F8000
00003F0000
00007E0000
0000FC0000
0001F80000
0003F00000
0003E00000
0007C00000
000F800000
001F000000
003F000400
007E000E00
00FC000E00
01F8001C00
03F0003C00
07E0007800
0FC000F000
0F8003F000
1F000FE000
3FFFFFE000
7FFFFFC000
7FFFFFC000
ENDCHAR

STARTCHAR macron
ENCODING 175
SWIDTH 440 0
DWIDTH 22 0
BBX 18 3 9 29
BITMAP
1FFF00
3FFE00
3FFE00
ENDCHAR

STARTCHAR degree
ENCODING 176
SWIDTH 400 0
DWIDTH 20 0
BBX 17 13 9 22
BITMAP
03F000
0FF800
1E3C00
180E00
380E00
300600
300600
300600
380E00
180C00
1E3C00
0FF800
03F000
ENDCHAR

STARTCHAR aogonek
ENCODING 177
SWIDTH 620 0
DWIDTH 31 0
BBX 32 34 3 -9
BITMAP
0007C000
001FF8E0
007FFCE0
00FC0FE0
01F003E0
03E001C0
07C001C0
0F8003C0
0F8003C0
1F000380
1F000780
1E000780
3E000780
3E000F80
3E000F00
3C001F00
3C001F00
3C003F00
3C007E00
3E007E00
3E00DE04
1E039E0E
1F071E3C
0FFE0FF8
07FC07F0
01F00380
00000E00
00001C00
00001800
00003800
00003800
00001800
00001F00
00000700
ENDCHAR

STARTCHAR ogonek
ENCODING 178
SWIDTH 260 0
DWIDTH 13 0
BBX 9 9 -1 -9
BITMAP
0700
0C00
3800
3000
7000
7000
3000
3E00
0E00
ENDCHAR

STARTCHAR rcommaaccent
ENCODING 179
SWIDTH 400 0
DWIDTH 20 0
BBX 23 36 4 -11
BITMAP
00E0F0
07E3F8
3FC7F8
3FCFF8
03DE70
03F800
03B000
07F000
07E000
07C000
07C000
078000
0F8000
0F8000
0F0000
0F0000
0F0000
1E0000
1E0000
1E0000
1E0000
3C0000
3C0000
3C0000
3C0000
000000
000000
0E0000
1F0000
1F0000
1F0000
030000
060000
0E0000
1C0000
300000
ENDCHAR

STARTCHAR acute
ENCODING 180
SWIDTH 320 0
DWIDTH 16 0
BBX 13 7 8 27
BITMAP
00E0
03F0
07E0
0FE0
1F80
3E00
3800
ENDCHAR

STARTCHAR itilde
ENCODING 181
SWIDTH 280 0
DWIDTH 14 0
BBX 18 33 3 -1
BITMAP
0F8300
1FFE00
3FFC00
60F800
000000
000000
000000
000000
000000
01E000
1FE000
3FC000
3FC000
03C000
03C000
078000
078000
078000
078000
0F0000
0F0000
0F0000
0F0000
1E0000
1E0000
1E0000
1C0000
3C0000
3C1800
3C3800
3E7000
1FE000
0F8000
ENDCHAR

STARTCHAR lcommaaccent
ENCODING 182
SWIDTH 280 0
DWIDTH 14 0
BBX 15 47 3 -12
BITMAP
0038
01F8
0FF8
0FF0
00F0
00F0
00F0
01E0
01E0
01E0
01E0
01C0
03C0
03C0
03C0
03C0
0780
0780
0780
0780
0700
0F00
0F00
0F00
0F00
1E00
1E00
1E00
1E00
3C00
3C00
3C18
3C38
3E70
1FE0
0F80
0000
0000
1C00
3E00
3E00
3E00
0600
0C00
1C00
3800
6000
ENDCHAR

STARTCHAR caron
ENCODING 183
SWIDTH 440 0
DWIDTH 22 0
BBX 18 5 9 28
BITMAP
380700
3E3E00
0FF800
07E000
018000
ENDCHAR

STARTCHAR commaaccent
ENCODING 184
SWIDTH 333 0
DWIDTH 17 0
BBX 9 9 5 -11
BITMAP
1C00
3E00
3E00
3E00
0600
0C00
1C00
3800
6000
ENDCHAR

STARTCHAR scaron
ENCODING 185
SWIDTH 540 0
DWIDTH 27 0
BBX 27 35 3 -1
BITMAP
001C0380
001F1F00
0007FC00
0003F800
0000E000
00000000
00000000
00000000
00000000
001FF000
00FFFC00
01F87F00
03C01F80
03800F80
07800780
07800780
07800100
07E00000
03F00000
01FE0000
00FF8000
007FF000
001FF800
0003FC00
0000FE00
00003F00
30001F00
78000F00
7C000F00
7E000F00
3E001E00
1F801E00
0FE0FC00
03FFF000
007FC000
ENDCHAR

STARTCHAR emacron
ENCODING 186
SWIDTH 540 0
DWIDTH 27 0
BBX 29 34 3 -1
BITMAP
0003FFE0
0007FFE0
0007FFC0
00000000
00000000
00000000
00000000
00000000
0007F800
003FFE00
007E1F00
01F80F80
03E00780
07C00780
0F800780
0F000780
1F000F00
1E001E00
3E007C00
3C07F800
3FFFC000
7FFC0000
7C000000
7C000000
7C000000
7C000000
3C000000
3E000600
3E001E00
1F003C00
1FC1F800
0FFFE000
03FF8000
00FC0000
ENDCHAR

STARTCHAR gcommaaccent
ENCODING 187
SWIDTH 560 0
DWIDTH 28 0
BBX 31 49 1 -12
BITMAP
00000300
00000E00
00001C00
00001800
00003000
00003E00
00003E00
00003E00
00001C00
00000000
00000000
00000000
0000F000
0007FE38
001FFF38
003F03F8
007C01F8
00F800F0
01F000F0
03E000F0
03E000F0
07C001E0
07C001E0
078001E0
0F8003E0
0F8003E0
0F0007C0
0F0007C0
0F000FC0
0F000FC0
0F001BC0
0F003F80
0F807780
0780E780
07C3C780
03FF8F00
01FF0F00
00780F00
00000F00
00001E00
00001E00
00001E00
18003C00
3C007800
3E00F800
3F01F000
1F87E000
0FFF8000
03FE0000
ENDCHAR

STARTCHAR afii253
ENCODING 188
SWIDTH 278 0
DWIDTH 14 0
BBX 16 28 0 0
BITMAP
0018
0010
0030
0070
00F0
01E0
07FE
1FFE
01C0
03C0
03C0
03C0
0380
3FF8
0780
0700
0F00
0F00
0E00
1E00
1E00
1E00
1C30
3C60
3C40
3D80
3F00
1E00
ENDCHAR

STARTCHAR afii238
ENCODING 189
SWIDTH 685 0
DWIDTH 34 0
BBX 39 35 -3 -1
BITMAP
0003F01E00
001FF07F80
0003E1FFC0
0003E303E0
0003E601F0
0003CC01F0
0003D800F0
0003D000F8
0007F000F8
0007E000F8
0007C000F8
000FC000F8
000F8000F8
000F8000F8
000F0000F8
001F0000F8
001E0001F8
001E0001F8
003E0001F0
003C0001F0
003C0001F0
003C0001E0
007C0003E0
00780E03E0
00781F03C0
00F83F03C0
00F07F0780
00F07E0780
01F07C0F00
01F0700E00
01E0601C00
03E0603800
07F0307000
3FFE1FE000
0000070000
ENDCHAR

STARTCHAR zcaron
ENCODING 190
SWIDTH 520 0
DWIDTH 26 0
BBX 30 35 0 -1
BITMAP
000380F0
0001F3E0
0000FF80
00003E00
00001800
00000000
00000000
00000000
00000000
007FC008
01FFFFF8
03F07FF0
03E003E0
07C007C0
07C00FC0
07801F80
03803F00
00007E00
0000FC00
0001F800
0003F000
0007E000
000FC000
001F8000
003F0000
007E0000
00FC00C0
01F801E0
03F001E0
07E001E0
0FC001E0
1F8003C0
3FFC07C0
3FFFFF00
2003FC00
ENDCHAR

STARTCHAR afii254
ENCODING 191
SWIDTH 482 0
DWIDTH 24 0
BBX 23 33 0 -11
BITMAP
00E078
1FE1FC
03C3FC
03C63C
03CC3C
03883C
039038
07A078
07A078
074078
0F8070
0F80F0
0F00F0
0F00E0
1E01E0
1E01E0
1C01E0
3C01C0
3C03C0
3803C0
780380
780780
000780
000780
000700
000F00
000E00
000E00
001C00
0E1800
1E3000
1C6000
0FC000
ENDCHAR

STARTCHAR Amacron
ENCODING 192
SWIDTH 700 0
DWIDTH 35 0
BBX 38 41 -1 0
BITMAP
00001FFF80
00001FFF00
00003FFF00
0000000000
0000000000
0000000000
0000000000
000001F000
000001F000
000003F000
000007F000
000007F000
00000EF800
00000E7800
00001C7800
0000187800
0000387800
0000707C00
0000707C00
0000E03C00
0000E03C00
0001C03C00
0003803C00
0003803E00
0007003E00
0007001E00
000FFFFE00
001FFFFE00
001C001F00
0038001F00
0038001F00
0070000F00
00F0000F00
00E0000F00
01C0000F80
01C0000F80
0380000F80
0780000F80
0FC0000FC0
7FF800FFF0
7FF800FFF0
ENDCHAR

STARTCHAR Aacute
ENCODING 193
SWIDTH 700 0
DWIDTH 35 0
BBX 38 43 -1 0
BITMAP
0000001C00
0000007C00
000000FC00
000001FC00
000003F000
000007C000
0000070000
0000000000
0000000000
000001F000
000001F000
000003F000
000007F000
000007F000
00000EF800
00000E7800
00001C7800
0000187800
0000387800
0000707C00
0000707C00
0000E03C00
0000E03C00
0001C03C00
0003803C00
0003803E00
0007003E00
0007001E00
000FFFFE00
001FFFFE00
001C001F00
0038001F00
0038001F00
0070000F00
00F0000F00
00E0000F00
01C0000F80
01C0000F80
0380000F80
0780000F80
0FC0000FC0
7FF800FFF0
7FF800FFF0
ENDCHAR

STARTCHAR Acircumflex
ENCODING 194
SWIDTH 700 0
DWIDTH 35 0
BBX 38 42 -1 0
BITMAP
0000006000
000001F800
000007FC00
00001F9F00
00003C0780
0000000000
0000000000
0000000000
000001F000
000001F000
000003F000
000007F000
000007F000
00000EF800
00000E7800
00001C7800
0000187800
0000387800
0000707C00
0000707C00
0000E03C00
0000E03C00
0001C03C00
0003803C00
0003803E00
0007003E00
0007001E00
000FFFFE00
001FFFFE00
001C001F00
0038001F00
0038001F00
0070000F00
00F0000F00
00E0000F00
01C0000F80
01C0000F80
0380000F80
0780000F80
0FC0000FC0
7FF800FFF0
7FF800FFF0
ENDCHAR

STARTCHAR Atilde
ENCODING 195
SWIDTH 700 0
DWIDTH 35 0
BBX 38 41 -1 0
BITMAP
000007C180
00000FFF00
00001FFE00
0000307C00
0000000000
0000000000
0000000000
000001F000
000001F000
000003F000
000007F000
000007F000
00000EF800
00000E7800
00001C7800
0000187800
0000387800
0000707C00
0000707C00
0000E03C00
0000E03C00
0001C03C00
0003803C00
0003803E00
0007003E00
0007001E00
000FFFFE00
001FFFFE00
001C001F00
0038001F00
0038001F00
0070000F00
00F0000F00
00E0000F00
01C0000F80
01C0000F80
0380000F80
0780000F80
0FC0000FC0
7FF800FFF0
7FF800FFF0
ENDCHAR

STARTCHAR Adieresis
ENCODING 196
SWIDTH 700 0
DWIDTH 35 0
BBX 38 42 -1 0
BITMAP
0000070700
00000F8F80
00001F9F80
00001F9F80
00001F1F00
00000E0E00
0000000000
0000000000
000000F000
000001F000
000003F800
000003F800
0000077800
0000077800
00000E7800
00000C7800
00001C7C00
0000383C00
0000383C00
0000703C00
0000703C00
0000E03E00
0001C03E00
0001C01E00
0003801E00
0003801E00
0007001E00
000FFFFF00
000FFFFF00
001C000F00
001C000F00
0038000F00
0078000F00
0070000F80
00E0000F80
00E0000780
01C0000780
03C0000780
03C00007C0
07C0000FE0
3FF800FFF8
3FF800FFF8
ENDCHAR

STARTCHAR Aring
ENCODING 197
SWIDTH 700 0
DWIDTH 35 0
BBX 39 45 -2 0
BITMAP
0000007800
000000FC00
0000018600
0000030300
0000030300
0000030300
0000030300
0000018600
000000FC00
0000003000
0000000000
000000F800
000001F800
000001F800
000003F800
000003F800
0000077C00
00000E7C00
00000E3C00
00001C3C00
00001C3C00
0000383E00
0000703E00
0000701E00
0000E01E00
0000E01E00
0001C01F00
0003C01F00
0003801F00
0007000F00
0007FFFF00
000FFFFF00
001E000F80
001C000F80
0038000F80
0038000780
0070000780
00F00007C0
00E00007C0
01E00007C0
01C00007C0
03C00007C0
07C00007E0
3FF8007FFC
3FF800FFF8
ENDCHAR

STARTCHAR AE
ENCODING 198
SWIDTH 1220 0
DWIDTH 61 0
BBX 67 34 -1 0
BITMAP
000000FFFFFFFFFC00
000000FFFFFFFFFE00
0000001FFFFFFFFE00
0000000F00F0007E00
0000001E01F0001F00
0000003C01E0000F00
0000003801E0000700
0000007001E0000380
000000F003E0000380
000001E003C0000100
000003C003C0038000
0000078003C0030000
0000078003C0070000
00000F0007C0070000
00001E0007800F0000
00003FFFFFFFFE0000
00007FFFFFFFFE0000
0000FFFFFFFFFE0000
0000F0000F001E0000
0001E0000F001E0000
0003C0000F000C0000
000780000F000C0000
000F80001F001C0000
001F00001E00000700
001E00001E00000600
003C00001E00000E00
007800003E00001C00
00F800003C00003C00
01F000003C00007800
03E000003C0000F800
07C000007C0007F000
0FE00001FFFFFFF000
7FFC000FFFFFFFE000
7FFC000FFFFFFFE000
ENDCHAR

STARTCHAR Iogonek
ENCODING 199
SWIDTH 320 0
DWIDTH 16 0
BBX 24 43 0 -9
BITMAP
007FFE
007FFC
000FE0
0007C0
000780
000780
000F80
000F80
000F00
000F00
001F00
001F00
001E00
001E00
001E00
003E00
003C00
003C00
003C00
007C00
007C00
007800
007800
007800
00F800
00F000
00F000
00F000
01F000
01F000
01F000
03F000
3FFE00
3FFE00
00C000
038000
070000
060000
0E0000
0E0000
060000
07C000
01C000
ENDCHAR

STARTCHAR Ccaron
ENCODING 200
SWIDTH 720 0
DWIDTH 36 0
BBX 37 43 4 -1
BITMAP
0000380700
00001F1F00
00000FFC00
000003F000
000001C000
0000000000
0000000000
00001FC000
0001FFF860
0007FFFCE0
000FE03FE0
003F000FE0
007E0007E0
00F80003E0
01F00001E0
03F00001E0
03E00000E0
07C00000E0
0FC0000060
0F80000040
1F80000000
1F00000000
1F00000000
1F00000000
3F00000000
3E00000000
3E00000000
3E00000000
3E00000000
3E00000000
3E00000000
3F00000000
3F00000000
1F00000180
1F80000380
0F80000700
0FC0001E00
07E0003C00
03F000F800
01FC07E000
00FFFFC000
003FFF0000
000FF80000
ENDCHAR

STARTCHAR Eacute
ENCODING 201
SWIDTH 680 0
DWIDTH 34 0
BBX 39 43 0 0
BITMAP
0000003800
000000F800
000001F800
000003F800
000007F000
00000FC000
00000E0000
0000080000
0000000000
003FFFFFC0
007FFFFFE0
000FFFFFE0
0007C003E0
00078001F0
00078000F0
0007800070
0007800038
000F800038
000F003800
000F003800
000F003000
001F007000
001E00F000
001E01F000
001FFFE000
003FFFE000
003C03E000
003C01E000
003C00C000
003C00C000
007C00C000
007801C020
0078000070
00780000E0
00F80000E0
00F00001C0
00F00003C0
00F0000780
01F0001F80
01F0007F00
03FFFFFF00
3FFFFFFE00
3FFFFFFE00
ENDCHAR

STARTCHAR Eogonek
ENCODING 202
SWIDTH 680 0
DWIDTH 34 0
BBX 38 42 1 -8
BITMAP
007FFFFF80
00FFFFFFC0
001FFFFFC0
000F8007C0
000F0003E0
000F0000E0
000F0000E0
000F000070
001F000070
001E003000
001E007000
001E006000
003E00E000
003C01E000
003C03E000
003FFFC000
007FFFC000
007C07C000
007803C000
007801C000
0078018000
00F8018000
00F0018040
00F00000E0
00F00000C0
01F00001C0
01E0000380
01E0000780
01E0000F00
03E0003F00
03E000FE00
07FFFFFE00
7FFFFFFC00
7FFFFFFC00
000000E000
000001C000
0000038000
0000070000
0000070000
0000030000
000003E000
000000E000
ENDCHAR

STARTCHAR Edieresis
ENCODING 203
SWIDTH 680 0
DWIDTH 34 0
BBX 38 42 1 0
BITMAP
00001C1C00
00003E3E00
00007E7E00
00007E7E00
00007C7C00
0000383800
0000000000
0000000000
007FFFFFC0
007FFFFFC0
000FFFFFC0
000F8007E0
00078001E0
000F8000E0
000F000070
000F000070
000F000030
001F003000
001E003000
001E007000
001E007000
001E00E000
003C03E000
003FFFE000
003FFFE000
003C07C000
007C01C000
007801C000
007801C000
0078018000
00F8018040
00F0000060
00F00000E0
00F00001C0
00F00003C0
01F0000780
01E0000F80
01E0001F00
03E000FF00
07FFFFFE00
3FFFFFFE00
7FFFFFFC00
ENDCHAR

STARTCHAR Edotaccent
ENCODING 204
SWIDTH 680 0
DWIDTH 34 0
BBX 38 42 1 0
BITMAP
0000038000
000007C000
00000FC000
00000FC000
00000F8000
0000070000
0000000000
0000000000
007FFFFFC0
007FFFFFC0
001FFFFFC0
000F8007C0
000F8003E0
000F0000E0
000F0000E0
000F000070
001F000070
001E003000
001E007000
001E006000
001E00E000
003C00E000
003C03E000
003FFFE000
003FFFC000
007C07C000
007803C000
007801C000
0078018000
00F8018000
00F0018040
00F00000E0
00F00000C0
00F00001C0
01F0000380
01E0000780
01E0000F00
01E0003F00
03E000FE00
07FFFFFE00
7FFFFFFC00
7FFFFFFC00
ENDCHAR

STARTCHAR Iacute
ENCODING 205
SWIDTH 320 0
DWIDTH 16 0
BBX 25 43 0 0
BITMAP
00000E00
00003E00
00007E00
0000FE00
0001FC00
0003E000
00038000
00000000
00000000
007FFC00
007FFC00
000FC000
000F8000
00078000
000F8000
000F0000
000F0000
000F0000
001F0000
001F0000
001E0000
001E0000
001E0000
003E0000
003C0000
003C0000
003C0000
007C0000
00780000
00780000
00780000
00F80000
00F80000
00F00000
00F00000
00F00000
01F00000
01E00000
01E00000
03E00000
07F00000
3FFE0000
7FFE0000
ENDCHAR

STARTCHAR Icircumflex
ENCODING 206
SWIDTH 320 0
DWIDTH 16 0
BBX 25 42 0 0
BITMAP
0000C000
0003F000
000FF800
003F3E00
00780F00
00000000
00000000
00000000
007FFC00
007FFC00
000FC000
000F8000
00078000
000F8000
000F0000
000F0000
000F0000
001F0000
001F0000
001E0000
001E0000
001E0000
003E0000
003C0000
003C0000
003C0000
007C0000
00780000
00780000
00780000
00F80000
00F80000
00F00000
00F00000
00F00000
01F00000
01E00000
01E00000
03E00000
07F00000
3FFE0000
7FFE0000
ENDCHAR

STARTCHAR Imacron
ENCODING 207
SWIDTH 320 0
DWIDTH 16 0
BBX 26 41 0 0
BITMAP
001FFF00
001FFF00
003FFE00
00000000
00000000
00000000
00000000
007FFC00
007FFC00
000FC000
000F8000
00078000
000F8000
000F0000
000F0000
000F0000
001F0000
001F0000
001E0000
001E0000
001E0000
003E0000
003C0000
003C0000
003C0000
007C0000
00780000
00780000
00780000
00F80000
00F80000
00F00000
00F00000
00F00000
01F00000
01E00000
01E00000
03E00000
07F00000
3FFE0000
7FFE0000
ENDCHAR

STARTCHAR Eth
ENCODING 208
SWIDTH 740 0
DWIDTH 37 0
BBX 41 34 0 0
BITMAP
007FFFF00000
007FFFFF0000
000FFFFF8000
0007801FE000
00078003F000
00078001F800
000F8000F800
000F00007C00
000F00007C00
000F00003E00
001F00003E00
001F00003E00
001E00003E00
001E00003E00
003E00003E00
003E00003E00
03FFFF803E00
07FFFF803E00
003C00007C00
007C00007C00
007800007C00
00780000F800
00780000F800
00F80001F000
00F80001F000
00F00003E000
00F00007C000
00F0000F8000
01F0001F8000
01E0007E0000
03E003FC0000
07FFFFF00000
3FFFFF800000
3FFFF8000000
ENDCHAR

STARTCHAR Ncommaaccent
ENCODING 209
SWIDTH 720 0
DWIDTH 36 0
BBX 44 45 0 -11
BITMAP
003FF001FFE0
007FF801FFC0
000778003E00
000778003C00
00077C003800
00073C003800
00073C003800
00063E003800
000E1E007000
000E1E007000
000E1F007000
000C0F007000
001C0F00E000
001C0F80E000
001C0780E000
001C07C0E000
003807C0C000
003803C1C000
003803E1C000
003801E1C000
003001E1C000
007001F38000
007000F38000
007000F38000
006000FB8000
00E0007B0000
00E0007F0000
00E0007F0000
00E0003F0000
01C0003E0000
01C0003E0000
03E0001E0000
3FFC001E0000
3FFC001C0000
000000000000
000000000000
000070000000
0000F8000000
0000F8000000
0000F8000000
000018000000
000030000000
000070000000
0000E0000000
000180000000
ENDCHAR

STARTCHAR Omacron
ENCODING 210
SWIDTH 760 0
DWIDTH 38 0
BBX 38 42 4 -1
BITMAP
00003FFE00
00007FFC00
00007FFC00
0000000000
0000000000
0000000000
00003F8000
0001FFF000
000FFFFC00
001FC07E00
007E001F00
00FC000F80
01F00007C0
03E00003C0
07E00003E0
07C00003E0
0F800001F0
0F800001F0
1F000001F0
1F000001F0
3E000001F0
3E000001F0
3E000001F0
7C000001F0
7C000001F0
7C000003E0
7C000003E0
7C000003E0
7C000007E0
7C000007C0
7C00000FC0
3C00000F80
3E00001F00
3E00003F00
1E00003E00
1F00007C00
0F8001F800
07C003F000
03F00FC000
01FFFF8000
007FFC0000
000FE00000
ENDCHAR

STARTCHAR Kcommaaccent
ENCODING 211
SWIDTH 720 0
DWIDTH 36 0
BBX 43 45 1 -11
BITMAP
007FFC0FFF80
007FFC0FFF80
000FC001FC00
000F8001F000
000F8003E000
000F80078000
000F000F0000
000F001E0000
000F003C0000
001F00F00000
001F01E00000
001E03C00000
001E07800000
001E0E000000
003E3E000000
003C7F000000
003CFF000000
003DEF800000
007F8F800000
007F07C00000
007E07C00000
007C03E00000
00F803E00000
00F801F00000
00F001F00000
00F000F80000
00F000F80000
01F0007C0000
01E0007C0000
01E0003E0000
03E0003F0000
07F0003F8000
3FFE03FFF000
7FFE03FFE000
000000000000
000000000000
0001C0000000
0003E0000000
0003E0000000
0003E0000000
000060000000
0000C0000000
0001C0000000
000380000000
000600000000
ENDCHAR

STARTCHAR Ocircumflex
ENCODING 212
SWIDTH 760 0
DWIDTH 38 0
BBX 38 43 4 -1
BITMAP
000001C000
000007E000
00001FF800
00007C7C00
0000700E00
0000000000
0000000000
00003F8000
0001FFF000
000FFFFC00
001FC07E00
007E001F00
00FC000F80
01F00007C0
03E00003C0
07E00003E0
07C00003E0
0F800001F0
0F800001F0
1F000001F0
1F000001F0
3E000001F0
3E000001F0
3E000001F0
7C000001F0
7C000001F0
7C000003E0
7C000003E0
7C000003E0
7C000007E0
7C000007C0
7C00000FC0
3C00000F80
3E00001F00
3E00003F00
1E00003E00
1F00007C00
0F8001F800
07C003F000
03F00FC000
01FFFF8000
007FFC0000
000FE00000
ENDCHAR

STARTCHAR Otilde
ENCODING 213
SWIDTH 760 0
DWIDTH 38 0
BBX 38 42 4 -1
BITMAP
00001F8600
00003FFC00
00007FFC00
0000C0F000
0000000000
0000000000
00003F8000
0001FFF000
000FFFFC00
001FC07E00
007E001F00
00FC000F80
01F00007C0
03E00003C0
07E00003E0
07C00003E0
0F800001F0
0F800001F0
1F000001F0
1F000001F0
3E000001F0
3E000001F0
3E000001F0
7C000001F0
7C000001F0
7C000003E0
7C000003E0
7C000003E0
7C000007E0
7C000007C0
7C00000FC0
3C00000F80
3E00001F00
3E00003F00
1E00003E00
1F00007C00
0F8001F800
07C003F000
03F00FC000
01FFFF8000
007FFC0000
000FE00000
ENDCHAR

STARTCHAR Odieresis
ENCODING 214
SWIDTH 760 0
DWIDTH 38 0
BBX 38 43 4 -1
BITMAP
00001C1C00
00003E3E00
00007E7E00
00007E7E00
00007C7C00
0000383800
0000000000
00003F8000
0001FFF000
0007FFFC00
001FC07E00
007E001F00
00FC000F80
01F80007C0
03F00003C0
07E00003E0
07C00001E0
0F800001F0
0F800001F0
1F000001F0
1F000001F0
3E000001F0
3E000001F0
3E000001F0
7E000001F0
7C000001F0
7C000003E0
7C000003E0
7C000003E0
7C000007E0
7C000007C0
7C000007C0
3C00000F80
3E00001F00
3E00001F00
1F00003E00
1F00007C00
0F8000F800
07C003F000
03F00FC000
01FFFF8000
007FFE0000
000FE00000
ENDCHAR

STARTCHAR multiply
ENCODING 215
SWIDTH 600 0
DWIDTH 30 0
BBX 23 20 7 7
BITMAP
100010
380038
3C0078
1E00F0
0F01E0
0783C0
03C780
01EF00
00FE00
007C00
007C00
00FE00
01EF00
03C780
0783C0
0F01E0
1E00F0
3C0078
380038
100010
ENDCHAR

STARTCHAR Oslash
ENCODING 216
SWIDTH 760 0
DWIDTH 38 0
BBX 45 36 0 -1
BITMAP
000003F80040
00001FFF00E0
0000FFFFC1E0
0001FC07E3C0
0007E001F700
000FC000FE00
001F00007C00
003E00007C00
007E0000FE00
007C0001FE00
00F800079E00
00F8000F1F00
01F0001E1F00
01F0003C1F00
03E000701F00
03E000E01F00
03E003C01F00
07C007801F00
07C00F001F00
07C01E003E00
07C038003E00
07C0F0003E00
07C1E0007E00
07C3C0007C00
07C78000FC00
03CE0000F800
03FC0001F000
03F80003F000
01F00003E000
01F00007C000
03F8001F8000
0F7C003F0000
1E3F01FC0000
3C1FFFF80000
3807FFE00000
0000FE000000
ENDCHAR

STARTCHAR Uogonek
ENCODING 217
SWIDTH 720 0
DWIDTH 36 0
BBX 40 43 5 -9
BITMAP
1FFF003FFC
3FFF003FFC
03F80007C0
03F0000380
03E0000380
03E0000300
03E0000700
03C0000700
07C0000700
07C0000700
07C0000E00
0780000E00
0780000E00
0F80000E00
0F80000C00
0F00001C00
0F00001C00
1F00001C00
1F00001800
1E00003800
1E00003800
3E00003800
3E00003800
3E00007000
3C00007000
3C00007000
3E0000E000
3E0001E000
3E0001C000
1F0003C000
1F800F8000
0FE03F0000
03FFFC0000
01FFF80000
003F800000
0006000000
001C000000
0018000000
0038000000
0038000000
0038000000
001F000000
0007000000
ENDCHAR

STARTCHAR Uacute
ENCODING 218
SWIDTH 720 0
DWIDTH 36 0
BBX 39 44 5 -1
BITMAP
0000007000
000001F000
000003F000
000007E000
00000FC000
00001F0000
00001C0000
0000000000
0000000000
1FFF003FFC
3FFF003FF8
03F00007C0
03E0000780
03E0000700
03C0000700
03C0000700
03C0000700
07C0000E00
0780000E00
0780000E00
0780000E00
0F80000C00
0F80001C00
0F00001C00
0F00001C00
0F00001C00
1F00003800
1E00003800
1E00003800
1E00003800
3E00007000
3E00007000
3C00007000
3C00007000
3C0000E000
3C0000E000
3E0001C000
3E0003C000
1F00078000
1F800F0000
0FE03E0000
07FFFC0000
01FFF00000
007FC00000
ENDCHAR

STARTCHAR Ucircumflex
ENCODING 219
SWIDTH 720 0
DWIDTH 36 0
BBX 39 43 5 -1
BITMAP
0000060000
00001F0000
00007FC000
0001FBE000
0003C07000
0000000000
0000000000
0000000000
1FFF003FFC
3FFF003FF8
03F00007C0
03E0000780
03E0000700
03C0000700
03C0000700
03C0000700
07C0000E00
0780000E00
0780000E00
0780000E00
0F80000C00
0F80001C00
0F00001C00
0F00001C00
0F00001C00
1F00003800
1E00003800
1E00003800
1E00003800
3E00007000
3E00007000
3C00007000
3C00007000
3C0000E000
3C0000E000
3E0001C000
3E0003C000
1F00078000
1F800F0000
0FE03E0000
07FFFC0000
01FFF00000
007FC00000
ENDCHAR

STARTCHAR Udieresis
ENCODING 220
SWIDTH 720 0
DWIDTH 36 0
BBX 39 43 6 -1
BITMAP
0000707000
0000F8F800
0001F9F800
0001F9F800
0001F1F000
0000E0E000
0000000000
0000000000
1FFF003FF8
3FFF007FF8
07F0000780
03E0000700
03E0000700
03C0000700
03C0000600
03C0000E00
07C0000E00
0780000E00
0780000E00
0780000C00
0F80001C00
0F00001C00
0F00001C00
0F00001800
0F00003800
1F00003800
1E00003800
1E00003800
1E00007000
3E00007000
3C00007000
3C00007000
3C0000E000
3C0000E000
3C0001E000
3E0001C000
3E00038000
1F00078000
1F800F0000
0FE07E0000
07FFFC0000
01FFF00000
007F800000
ENDCHAR

STARTCHAR Utilde
ENCODING 221
SWIDTH 720 0
DWIDTH 36 0
BBX 39 42 5 -1
BITMAP
00001F0600
00007FFC00
00007FF800
0000C1F000
0000000000
0000000000
0000000000
1FFF003FFC
3FFF003FF8
03F00007C0
03E0000780
03E0000700
03C0000700
03C0000700
03C0000700
07C0000E00
0780000E00
0780000E00
0780000E00
0F80000C00
0F80001C00
0F00001C00
0F00001C00
0F00001C00
1F00003800
1E00003800
1E00003800
1E00003800
3E00007000
3E00007000
3C00007000
3C00007000
3C0000E000
3C0000E000
3E0001C000
3E0003C000
1F00078000
1F800F0000
0FE03E0000
07FFFC0000
01FFF00000
007F800000
ENDCHAR

STARTCHAR Umacron
ENCODING 222
SWIDTH 720 0
DWIDTH 36 0
BBX 39 42 5 -1
BITMAP
0001FFF800
0001FFF000
0001FFF000
0000000000
0000000000
0000000000
0000000000
1FFF003FFC
3FFF003FF8
03F00007C0
03E0000780
03E0000700
03C0000700
03C0000700
03C0000700
07C0000E00
0780000E00
0780000E00
0780000E00
0F80000C00
0F80001C00
0F00001C00
0F00001C00
0F00001C00
1F00003800
1E00003800
1E00003800
1E00003800
3E00007000
3E00007000
3C00007000
3C00007000
3C0000E000
3C0000E000
3E0001C000
3E0003C000
1F00078000
1F800F0000
0FE03E0000
07FFFC0000
01FFF00000
007FC00000
ENDCHAR

STARTCHAR germandbls
ENCODING 223
SWIDTH 620 0
DWIDTH 31 0
BBX 40 46 -7 -10
BITMAP
0000007FC0
000001FFF0
000003E0F8
0000078078
00000F003C
00001E003C
00001E003C
00001C003C
00003C00FC
00003C0FF8
00003C1F00
00003C3800
0007F87000
0007F87000
0007F87000
0000787800
0000707C00
0000F03E00
0000F01F80
0000F00FC0
0000F007F0
0000E003F8
0001E000FC
0001E0007C
0001E0003E
0001C0001E
0003C0001E
0003C0001E
0003C0001E
0003C0001E
00039E001C
00079E003C
00079F0038
00079F8070
00078FC1E0
000707FFC0
000F01FF00
000F000000
000E000000
000E000000
001E000000
1C1C000000
3E38000000
3FF0000000
3FE0000000
0F00000000
ENDCHAR

STARTCHAR amacron
ENCODING 224
SWIDTH 620 0
DWIDTH 31 0
BBX 32 33 3 -1
BITMAP
0001FFF0
0003FFE0
0003FFE0
00000000
00000000
00000000
00000000
00038000
001FF8E0
007FFCE0
00F80FE0
01F007E0
03E003C0
07C003C0
0F8003C0
0F8003C0
1F0007C0
1F000780
1E000780
3E000F80
3E000F80
3E000F00
3C001F00
3C003F00
3C003F00
3C007F00
3C00FE00
3E01DE00
1E039E0C
1F071E1C
0FFE1F38
07FC0FF0
01E007C0
ENDCHAR

STARTCHAR aacute
ENCODING 225
SWIDTH 620 0
DWIDTH 31 0
BBX 32 36 3 -1
BITMAP
00000380
00000780
00000F80
00001F80
00003F00
00007C00
0000E000
00000000
00000000
00000000
0007C000
001FF8E0
007FFCE0
00F80FE0
01F007E0
03E003C0
07C003C0
0F8003C0
0F8003C0
1F0007C0
1F000780
1E000780
3E000F80
3E000F80
3E000F00
3C001F00
3C003F00
3C003F00
3C007F00
3C00FE00
3E01DE00
1E039E0C
1F071E1C
0FFE1F38
07FC0FF0
01E007C0
ENDCHAR

STARTCHAR acircumflex
ENCODING 226
SWIDTH 620 0
DWIDTH 31 0
BBX 32 35 3 -1
BITMAP
00001800
00007C00
0001FF00
0007EF80
000F03C0
00000000
00000000
00000000
00000000
0007C000
001FF8E0
007FFCE0
00F80FE0
01F007E0
03E003C0
07C003C0
0F8003C0
0F8003C0
1F0007C0
1F000780
1E000780
3E000F80
3E000F80
3E000F00
3C001F00
3C003F00
3C003F00
3C007F00
3C00FE00
3E01DE00
1E039E0C
1F071E1C
0FFE1F38
07FC0FF0
01E007C0
ENDCHAR

STARTCHAR atilde
ENCODING 227
SWIDTH 620 0
DWIDTH 31 0
BBX 32 34 3 -1
BITMAP
0000FC30
0001FFE0
0003FFE0
00020F80
00000000
00000000
00000000
00000000
0007C000
001FF8E0
007FFCE0
00F80FE0
01F007E0
03E003C0
07C003C0
0F8003C0
0F8003C0
1F0007C0
1F000780
1E000780
3E000F80
3E000F80
3E000F00
3C001F00
3C003F00
3C003F00
3C007F00
3C00FE00
3E01DE00
1E039E0C
1F071E1C
0FFE1F38
07FC0FF0
01E007C0
ENDCHAR

STARTCHAR adieresis
ENCODING 228
SWIDTH 620 0
DWIDTH 31 0
BBX 32 35 3 -1
BITMAP
0000E0E0
0001F1F0
0003F3F0
0003F3F0
0003E3E0
0001C1C0
00000000
00000000
00000000
0003C000
001FF8E0
007FFEE0
00FC0FE0
01F003E0
03E001C0
07C001C0
0F8003C0
0F8003C0
1F0003C0
1F000780
1E000780
3E000780
3E000F80
3E000F00
3C001F00
3C001F00
3C003F00
3C007F00
3E006E00
3E00DE00
1E03DE0C
1F079E1C
0FFE1F38
07FC0FF0
01E007C0
ENDCHAR

STARTCHAR aring
ENCODING 229
SWIDTH 620 0
DWIDTH 31 0
BBX 32 37 3 -1
BITMAP
00003C00
00007F00
0000C300
00018180
00018180
00018180
0000C300
00007F00
00003C00
00000000
00000000
0003C000
001FF8E0
007FFCE0
00F81FE0
01F007E0
03E003C0
07C003C0
0F8003C0
0F0003C0
1F0007C0
1F000780
1E000780
3E000F80
3E000F80
3C000F00
3C001F00
3C003F00
3C003F00
3C007F00
3C00FE00
3E01DE00
1E039E0C
1F071E1C
0FFE1F38
07FC0FF0
01E007C0
ENDCHAR

STARTCHAR ae
ENCODING 230
SWIDTH 880 0
DWIDTH 44 0
BBX 45 26 2 -1
BITMAP
000FF801FE00
007FFE07FF80
00FC3F1F87C0
01F00FBE03E0
01E007F801E0
03E003F001E0
03C003E001E0
03C007E003E0
018007C007C0
000007801F80
00001F80FF00
000FFFFFFC00
00FFFFFFF000
03FC0FFE0000
0FC00F000000
1F000F000000
1E000F000000
3E001F000000
3C001F800000
3C003F8001C0
3C0077C003C0
3E01E7C00F00
1F07C3F03E00
1FFF81FFF800
0FFE00FFE000
03F0003F0000
ENDCHAR

STARTCHAR iogonek
ENCODING 231
SWIDTH 280 0
DWIDTH 14 0
BBX 15 44 4 -8
BITMAP
0060
00F8
00F8
00F8
00F0
0060
0000
0000
0000
0000
0000
0000
01C0
0FC0
3FC0
3FC0
0380
0780
0780
0780
0780
0F00
0F00
0F00
0F00
0E00
1E00
1E00
1E00
1C00
3C00
3C10
3C38
3C70
1FE0
0F80
0E00
1800
3000
7000
7000
3000
3E00
0E00
ENDCHAR

STARTCHAR ccaron
ENCODING 232
SWIDTH 480 0
DWIDTH 24 0
BBX 27 35 3 -1
BITMAP
000E03C0
000F8F80
0003FE00
0001F800
00006000
00000000
00000000
00000000
00000000
000FF000
003FFC00
007E3E00
01F01F00
03E00F00
07C00F00
07800F00
0F800F00
0F000F00
1F000000
1E000000
3E000000
3E000000
3E000000
3C000000
3C000000
3C000000
3C000000
3E000400
3E000E00
1F001C00
1F007800
0FC1F000
07FFE000
03FF8000
00FC0000
ENDCHAR

STARTCHAR eacute
ENCODING 233
SWIDTH 540 0
DWIDTH 27 0
BBX 27 36 3 -1
BITMAP
00000700
00000F80
00003F00
00007F00
0000FC00
0001F000
0001C000
00000000
00000000
00000000
0007F800
003FFE00
007E1F00
01F80F80
03E00780
07C00780
0F800780
0F000780
1F000F00
1E001E00
3E007C00
3C07F800
3FFFC000
7FFC0000
7C000000
7C000000
7C000000
7C000000
3C000000
3E000600
3E001E00
1F003C00
1FC1F800
0FFFE000
03FF8000
00FC0000
ENDCHAR

STARTCHAR eogonek
ENCODING 234
SWIDTH 540 0
DWIDTH 27 0
BBX 27 34 3 -9
BITMAP
0007FC00
001FFE00
007E1F00
00F80F80
03E00780
07C00780
07800780
0F800780
1F000F00
1F001E00
3E007C00
3E07F800
3FFFC000
7FFC0000
7C000000
7C000000
7C000000
7C000000
3C000000
3E000600
3F000E00
1F003C00
1FC0F800
0FFFE000
03FF8000
00FC0000
00180000
00700000
00600000
00E00000
00E00000
00E00000
007C0000
001C0000
ENDCHAR

STARTCHAR edieresis
ENCODING 235
SWIDTH 540 0
DWIDTH 27 0
BBX 28 35 3 -1
BITMAP
0001C1C0
0003E3E0
0007E7E0
0007E7E0
0007C7C0
00038380
00000000
00000000
00000000
0007F800
003FFE00
007E1F00
01F80F80
03E00780
07C00780
0F800780
0F000780
1F000F00
1E001E00
3E007C00
3C07F800
3FFFC000
7FFC0000
7C000000
7C000000
7C000000
7C000000
3C000000
3E000600
3E001E00
1F003C00
1FC1F800
0FFFE000
03FF8000
00FC0000
ENDCHAR

STARTCHAR edotaccent
ENCODING 236
SWIDTH 540 0
DWIDTH 27 0
BBX 27 35 3 -1
BITMAP
00003800
00007C00
0000FC00
0000FC00
0000F800
00007000
00000000
00000000
00000000
0007F800
001FFE00
007E1F00
01F80F80
03E00780
07C00780
0F800780
0F000780
1F000F00
1E001E00
3E007C00
3C07F800
3FFFC000
7FFC0000
7C000000
7C000000
7C000000
7C000000
3C000000
3E000600
3E001E00
1F003C00
1FC1F800
0FFFE000
03FF8000
00FC0000
ENDCHAR

STARTCHAR iacute
ENCODING 237
SWIDTH 280 0
DWIDTH 14 0
BBX 19 36 3 -1
BITMAP
000700
000F80
001F80
003F00
007E00
00F800
00C000
000000
000000
000000
00E000
07E000
3FC000
3FC000
03C000
03C000
078000
078000
078000
078000
078000
0F0000
0F0000
0F0000
0F0000
1E0000
1E0000
1E0000
1E0000
3C0000
3C0000
3C1800
3C3800
3E7000
1FE000
0F8000
ENDCHAR

STARTCHAR icircumflex
ENCODING 238
SWIDTH 280 0
DWIDTH 14 0
BBX 21 35 3 -1
BITMAP
000C00
003E00
00FF80
03E7E0
0700E0
000000
000000
000000
000000
00E000
07E000
3FC000
3FC000
03C000
03C000
078000
078000
078000
078000
078000
0F0000
0F0000
0F0000
0F0000
1E0000
1E0000
1E0000
1E0000
3C0000
3C0000
3C1800
3C3800
3E7000
1FE000
0F8000
ENDCHAR

STARTCHAR imacron
ENCODING 239
SWIDTH 280 0
DWIDTH 14 0
BBX 21 34 3 -1
BITMAP
03FFE0
03FFE0
07FFC0
000000
000000
000000
000000
000000
00E000
07E000
3FC000
3FC000
03C000
03C000
078000
078000
078000
078000
078000
0F0000
0F0000
0F0000
0F0000
1E0000
1E0000
1E0000
1E0000
3C0000
3C0000
3C1800
3C3800
3E7000
1FE000
0F8000
ENDCHAR

STARTCHAR dcroat
ENCODING 240
SWIDTH 640 0
DWIDTH 32 0
BBX 36 37 3 -1
BITMAP
0000000E00
0000003E00
000003FE00
000003FC00
0000003C00
0000003C00
0000003C00
00003FFFC0
00007FFFC0
0000007800
0000007800
0001E07800
001FFCF000
007FFEF000
00FC0FF000
01F003F000
03E001E000
07C001E000
078001E000
0F8001E000
1F0003C000
1F0003C000
1E0003C000
3E0007C000
3E0007C000
3E00078000
3C000F8000
3C001F8000
3C001F8000
3C003F0000
3E007F0000
3E00EF0600
1E01CF0E00
1F078F9C00
0FFF07F800
07FE03E000
01F0000000
ENDCHAR

STARTCHAR ncommaaccent
ENCODING 241
SWIDTH 620 0
DWIDTH 31 0
BBX 31 36 4 -11
BITMAP
00C07C00
07C1FF00
3FC7FF00
7FCF0F80
039C0780
07B80780
07B00780
07E00780
07E00F80
0FC00F00
0FC00F00
0F800F00
0F800F00
0F000E00
1F001E00
1E001E00
1E001E00
1E001E00
1E001C00
3C003C00
3C003C18
3C003C18
3C003C70
78003FF0
78001FC0
00000200
00000000
00380000
007C0000
007C0000
007C0000
000C0000
00180000
00380000
00700000
00C00000
ENDCHAR

STARTCHAR omacron
ENCODING 242
SWIDTH 540 0
DWIDTH 27 0
BBX 27 34 3 -1
BITMAP
000FFF80
000FFF80
001FFF00
00000000
00000000
00000000
00000000
00000000
000FE000
007FF800
00FC7E00
01F01E00
03E00F00
07C00F00
0F800F80
0F000780
1F000780
1E000780
1E000780
3E000780
3E000780
3C000F80
3C000F80
3C000F80
3C000F00
3C001F00
3C001E00
3E003E00
1E007C00
1F007800
0F01F000
07C7E000
03FFC000
00FF0000
ENDCHAR

STARTCHAR kcommaaccent
ENCODING 243
SWIDTH 600 0
DWIDTH 30 0
BBX 30 48 4 -11
BITMAP
00180000
00780000
0FF80000
0FF00000
0FF00000
00F00000
00F00000
00F00000
01E00000
01E00000
01E00000
01E00000
03C007C0
03C03FF0
03C0FFF0
03C1E1F0
03C380F0
07870000
078E0000
079E0000
07BF0000
073F0000
0F6F0000
0FE78000
0FC78000
0F87C000
1F83C000
1F03C000
1F01E000
1E01E000
1E01E000
3E00F000
3C00F010
3C007838
3C007C70
78003FE0
78001FC0
00000600
00000000
00700000
00F80000
00F80000
00F80000
00180000
00300000
00700000
00E00000
01800000
ENDCHAR

STARTCHAR ocircumflex
ENCODING 244
SWIDTH 540 0
DWIDTH 27 0
BBX 27 35 3 -1
BITMAP
00007000
0001FC00
0007FE00
000F8F80
001C0380
00000000
00000000
00000000
00000000
000FE000
007FF800
00FC7E00
01F01E00
03E00F00
07C00F00
0F800F80
0F000780
1F000780
1E000780
1E000780
3E000780
3E000780
3C000F80
3C000F80
3C000F80
3C000F00
3C001F00
3C001E00
3E003E00
1E007C00
1F007800
0F01F000
07C7E000
03FFC000
00FF0000
ENDCHAR

STARTCHAR otilde
ENCODING 245
SWIDTH 540 0
DWIDTH 27 0
BBX 27 34 3 -1
BITMAP
0003E080
000FFF80
001FFF00
00103C00
00000000
00000000
00000000
00000000
000FE000
007FF800
00FC7E00
01F01E00
03E00F00
07C00F00
0F800F80
0F000780
1F000780
1E000780
1E000780
3E000780
3E000780
3C000F80
3C000F80
3C000F80
3C000F00
3C001F00
3C001E00
3E003E00
1E007C00
1F007800
0F01F000
07C7E000
03FFC000
00FF0000
ENDCHAR

STARTCHAR odieresis
ENCODING 246
SWIDTH 540 0
DWIDTH 27 0
BBX 27 35 3 -1
BITMAP
00070700
000F8F80
001F9F80
001F9F80
001F1F00
000E0E00
00000000
00000000
00000000
001FE000
007FF800
00FC7C00
01F01E00
03C01F00
07C00F00
0F800F80
0F000780
1F000780
1E000780
1E000780
3E000780
3E000780
3C000F80
3C000F80
3C000F80
3C001F00
3C001F00
3C001E00
3E003E00
1E007C00
1E00F800
0F01F000
07C7E000
03FFC000
00FE0000
ENDCHAR

STARTCHAR divide
ENCODING 247
SWIDTH 600 0
DWIDTH 30 0
BBX 27 21 5 7
BITMAP
000E0000
001F0000
001F0000
001F0000
000E0000
00000000
00000000
00000000
00000000
3FFFFF80
3FFFFF80
3FFFFF80
00000000
00000000
00000000
00000000
000E0000
001F0000
001F0000
001F0000
000E0000
ENDCHAR

STARTCHAR oslash
ENCODING 248
SWIDTH 540 0
DWIDTH 27 0
BBX 31 26 1 -1
BITMAP
0003FC18
000FFE38
003F1FF0
007C07E0
00F007C0
01F003C0
03E007E0
03C00FE0
07C01DE0
078039E0
078071E0
0F80E1E0
0F81C1E0
0F0783E0
0F0E03E0
0F1C03C0
0F3803C0
0F7007C0
0FE00780
0FC00F80
07801F00
07C01E00
0FC07C00
1DF1F800
38FFF000
303FC000
ENDCHAR

STARTCHAR uogonek
ENCODING 249
SWIDTH 620 0
DWIDTH 31 0
BBX 31 34 3 -9
BITMAP
00400000
03C003C0
3FC003C0
7FC003C0
7FC00380
03800780
07800780
07800780
07800780
07800F00
0F000F00
0F000F00
0F001F00
0F001F00
0E001E00
1E003E00
1E007E00
1E007E00
1E00DC00
1C01FC00
3C03BC08
3E073C1C
1E1E3C78
1FFC1FF0
0FF80FE0
03C00700
00000C00
00003800
00003000
00007000
00007000
00003000
00003E00
00000E00
ENDCHAR

STARTCHAR uacute
ENCODING 250
SWIDTH 620 0
DWIDTH 31 0
BBX 31 36 4 -1
BITMAP
00000300
00000F80
00001F80
00003F00
00007E00
0000F800
0001E000
00000000
00000000
00000000
00C00000
07C003C0
3FC003C0
7FC003C0
03C00380
03800780
07800780
07800780
07800780
07800F00
0F000F00
0F000F00
0F001F00
0F001E00
0E003E00
1E003E00
1E007E00
1E007E00
1E00DC00
1C01FC00
3C03BC00
3E073C18
1E1E3C38
1FFC3E70
0FF81FE0
03C00F80
ENDCHAR

STARTCHAR ucircumflex
ENCODING 251
SWIDTH 620 0
DWIDTH 31 0
BBX 31 35 4 -1
BITMAP
00000800
00003E00
0000FF00
0003F7C0
000781E0
00040000
00000000
00000000
00000000
00C00000
07C003C0
3FC003C0
7FC003C0
03C00380
03800780
07800780
07800780
07800780
07800F00
0F000F00
0F000F00
0F001F00
0F001E00
0E003E00
1E003E00
1E007E00
1E007E00
1E00DC00
1C01FC00
3C03BC00
3E073C18
1E1E3C38
1FFC3E70
0FF81FE0
03C00F80
ENDCHAR

STARTCHAR udieresis
ENCODING 252
SWIDTH 620 0
DWIDTH 31 0
BBX 31 35 4 -1
BITMAP
0001C1C0
0003E3E0
0007E7E0
0007E7E0
0007C7C0
00038380
00000000
00000000
00000000
00C00000
07C003C0
3FC003C0
7FC003C0
03C00380
03800780
07800780
07800780
07800780
07800F00
0F000F00
0F000F00
0F001F00
0F001E00
0E003E00
1E003E00
1E007E00
1E007E00
1E00DC00
1C01FC00
3C03BC00
3E073C18
1E1E3C38
1FFC3E70
0FF81FE0
03C00F80
ENDCHAR

STARTCHAR utilde
ENCODING 253
SWIDTH 620 0
DWIDTH 31 0
BBX 32 34 3 -1
BITMAP
0001F860
0003FFE0
0007FFC0
000C1F00
00000000
00000000
00000000
00000000
00600000
01E001E0
3FE001E0
3FE001E0
3FC001C0
03C003C0
03C003C0
03C003C0
03C003C0
07800780
07800780
07800780
07800F80
0F000F80
0F001F00
0F001F00
0F003F00
0F003F00
1E007E00
1E00FE00
1E01DE00
1E039E0C
1F0F1E1C
0FFE1F78
07F80FF0
03E007C0
ENDCHAR

STARTCHAR umacron
ENCODING 254
SWIDTH 620 0
DWIDTH 31 0
BBX 31 33 4 -1
BITMAP
001FFF80
001FFF00
003FFF00
00000000
00000000
00000000
00000000
00C00000
03C003C0
3FC003C0
7FC003C0
03C00380
03800780
07800780
07800780
07800780
07800F00
0F000F00
0F000F00
0F001F00
0F001E00
0E003E00
1E003E00
1E007E00
1E007E00
1E00DC00
1C01FC00
3C03BC00
3E073C18
1E1E3C38
1FFC3E70
0FF81FE0
03C00F80
ENDCHAR

STARTCHAR dotaccent
ENCODING 255
SWIDTH 260 0
DWIDTH 13 0
BBX 8 6 9 28
BITMAP
1C
3E
7E
7E
7C
38
ENDCHAR
ENDFONT
